<?xml version="1.0" encoding="utf-8" standalone="no"?>
<!DOCTYPE svg PUBLIC "-//W3C//DTD SVG 1.1//EN"
  "http://www.w3.org/Graphics/SVG/1.1/DTD/svg11.dtd">
<svg xmlns:xlink="http://www.w3.org/1999/xlink" width="907.2pt" height="640.8pt" viewBox="0 0 907.2 640.8" xmlns="http://www.w3.org/2000/svg" version="1.1">
 <metadata>
  <rdf:RDF xmlns:dc="http://purl.org/dc/elements/1.1/" xmlns:cc="http://creativecommons.org/ns#" xmlns:rdf="http://www.w3.org/1999/02/22-rdf-syntax-ns#">
   <cc:Work>
    <dc:type rdf:resource="http://purl.org/dc/dcmitype/StillImage"/>
    <dc:date>2025-06-22T12:59:35.332558</dc:date>
    <dc:format>image/svg+xml</dc:format>
    <dc:creator>
     <cc:Agent>
      <dc:title>Matplotlib v3.9.4, https://matplotlib.org/</dc:title>
     </cc:Agent>
    </dc:creator>
   </cc:Work>
  </rdf:RDF>
 </metadata>
 <defs>
  <style type="text/css">*{stroke-linejoin: round; stroke-linecap: butt}</style>
 </defs>
 <g id="figure_1">
  <g id="patch_1">
   <path d="M 0 640.8 
L 907.2 640.8 
L 907.2 0 
L 0 0 
z
" style="fill: #ffffff"/>
  </g>
  <g id="axes_1">
   <g id="text_1">
    <!-- Core Metrics -->
    <g style="fill: #262626" transform="translate(161.650341 146.0925) scale(0.16 -0.16)">
     <defs>
      <path id="Arial-BoldMT-43" d="M 3397 1684 
L 4294 1400 
Q 4088 650 3608 286 
Q 3128 -78 2391 -78 
Q 1478 -78 890 545 
Q 303 1169 303 2250 
Q 303 3394 893 4026 
Q 1484 4659 2447 4659 
Q 3288 4659 3813 4163 
Q 4125 3869 4281 3319 
L 3366 3100 
Q 3284 3456 3026 3662 
Q 2769 3869 2400 3869 
Q 1891 3869 1573 3503 
Q 1256 3138 1256 2319 
Q 1256 1450 1568 1081 
Q 1881 713 2381 713 
Q 2750 713 3015 947 
Q 3281 1181 3397 1684 
z
" transform="scale(0.015625)"/>
      <path id="Arial-BoldMT-6f" d="M 256 1706 
Q 256 2144 472 2553 
Q 688 2963 1083 3178 
Q 1478 3394 1966 3394 
Q 2719 3394 3200 2905 
Q 3681 2416 3681 1669 
Q 3681 916 3195 420 
Q 2709 -75 1972 -75 
Q 1516 -75 1102 131 
Q 688 338 472 736 
Q 256 1134 256 1706 
z
M 1156 1659 
Q 1156 1166 1390 903 
Q 1625 641 1969 641 
Q 2313 641 2545 903 
Q 2778 1166 2778 1666 
Q 2778 2153 2545 2415 
Q 2313 2678 1969 2678 
Q 1625 2678 1390 2415 
Q 1156 2153 1156 1659 
z
" transform="scale(0.015625)"/>
      <path id="Arial-BoldMT-72" d="M 1300 0 
L 422 0 
L 422 3319 
L 1238 3319 
L 1238 2847 
Q 1447 3181 1614 3287 
Q 1781 3394 1994 3394 
Q 2294 3394 2572 3228 
L 2300 2463 
Q 2078 2606 1888 2606 
Q 1703 2606 1575 2504 
Q 1447 2403 1373 2137 
Q 1300 1872 1300 1025 
L 1300 0 
z
" transform="scale(0.015625)"/>
      <path id="Arial-BoldMT-65" d="M 2381 1056 
L 3256 909 
Q 3088 428 2723 176 
Q 2359 -75 1813 -75 
Q 947 -75 531 491 
Q 203 944 203 1634 
Q 203 2459 634 2926 
Q 1066 3394 1725 3394 
Q 2466 3394 2894 2905 
Q 3322 2416 3303 1406 
L 1103 1406 
Q 1113 1016 1316 798 
Q 1519 581 1822 581 
Q 2028 581 2168 693 
Q 2309 806 2381 1056 
z
M 2431 1944 
Q 2422 2325 2234 2523 
Q 2047 2722 1778 2722 
Q 1491 2722 1303 2513 
Q 1116 2303 1119 1944 
L 2431 1944 
z
" transform="scale(0.015625)"/>
      <path id="Arial-BoldMT-20" transform="scale(0.015625)"/>
      <path id="Arial-BoldMT-4d" d="M 453 0 
L 453 4581 
L 1838 4581 
L 2669 1456 
L 3491 4581 
L 4878 4581 
L 4878 0 
L 4019 0 
L 4019 3606 
L 3109 0 
L 2219 0 
L 1313 3606 
L 1313 0 
L 453 0 
z
" transform="scale(0.015625)"/>
      <path id="Arial-BoldMT-74" d="M 1981 3319 
L 1981 2619 
L 1381 2619 
L 1381 1281 
Q 1381 875 1398 808 
Q 1416 741 1477 697 
Q 1538 653 1625 653 
Q 1747 653 1978 738 
L 2053 56 
Q 1747 -75 1359 -75 
Q 1122 -75 931 4 
Q 741 84 652 211 
Q 563 338 528 553 
Q 500 706 500 1172 
L 500 2619 
L 97 2619 
L 97 3319 
L 500 3319 
L 500 3978 
L 1381 4491 
L 1381 3319 
L 1981 3319 
z
" transform="scale(0.015625)"/>
      <path id="Arial-BoldMT-69" d="M 459 3769 
L 459 4581 
L 1338 4581 
L 1338 3769 
L 459 3769 
z
M 459 0 
L 459 3319 
L 1338 3319 
L 1338 0 
L 459 0 
z
" transform="scale(0.015625)"/>
      <path id="Arial-BoldMT-63" d="M 3353 2338 
L 2488 2181 
Q 2444 2441 2289 2572 
Q 2134 2703 1888 2703 
Q 1559 2703 1364 2476 
Q 1169 2250 1169 1719 
Q 1169 1128 1367 884 
Q 1566 641 1900 641 
Q 2150 641 2309 783 
Q 2469 925 2534 1272 
L 3397 1125 
Q 3263 531 2881 228 
Q 2500 -75 1859 -75 
Q 1131 -75 698 384 
Q 266 844 266 1656 
Q 266 2478 700 2936 
Q 1134 3394 1875 3394 
Q 2481 3394 2839 3133 
Q 3197 2872 3353 2338 
z
" transform="scale(0.015625)"/>
      <path id="Arial-BoldMT-73" d="M 150 947 
L 1031 1081 
Q 1088 825 1259 692 
Q 1431 559 1741 559 
Q 2081 559 2253 684 
Q 2369 772 2369 919 
Q 2369 1019 2306 1084 
Q 2241 1147 2013 1200 
Q 950 1434 666 1628 
Q 272 1897 272 2375 
Q 272 2806 612 3100 
Q 953 3394 1669 3394 
Q 2350 3394 2681 3172 
Q 3013 2950 3138 2516 
L 2309 2363 
Q 2256 2556 2107 2659 
Q 1959 2763 1684 2763 
Q 1338 2763 1188 2666 
Q 1088 2597 1088 2488 
Q 1088 2394 1175 2328 
Q 1294 2241 1995 2081 
Q 2697 1922 2975 1691 
Q 3250 1456 3250 1038 
Q 3250 581 2869 253 
Q 2488 -75 1741 -75 
Q 1063 -75 667 200 
Q 272 475 150 947 
z
" transform="scale(0.015625)"/>
     </defs>
     <use xlink:href="#Arial-BoldMT-43"/>
     <use xlink:href="#Arial-BoldMT-6f" x="72.216797"/>
     <use xlink:href="#Arial-BoldMT-72" x="133.300781"/>
     <use xlink:href="#Arial-BoldMT-65" x="172.216797"/>
     <use xlink:href="#Arial-BoldMT-20" x="227.832031"/>
     <use xlink:href="#Arial-BoldMT-4d" x="255.615234"/>
     <use xlink:href="#Arial-BoldMT-65" x="338.916016"/>
     <use xlink:href="#Arial-BoldMT-74" x="394.53125"/>
     <use xlink:href="#Arial-BoldMT-72" x="427.832031"/>
     <use xlink:href="#Arial-BoldMT-69" x="466.748047"/>
     <use xlink:href="#Arial-BoldMT-63" x="494.53125"/>
     <use xlink:href="#Arial-BoldMT-73" x="550.146484"/>
    </g>
   </g>
   <g id="text_2">
    <!-- Active Cycling -->
    <g style="fill: #262626" transform="translate(27.490909 198.815625) scale(0.12 -0.12)">
     <defs>
      <path id="Arial-BoldMT-41" d="M 4597 0 
L 3591 0 
L 3191 1041 
L 1359 1041 
L 981 0 
L 0 0 
L 1784 4581 
L 2763 4581 
L 4597 0 
z
M 2894 1813 
L 2263 3513 
L 1644 1813 
L 2894 1813 
z
" transform="scale(0.015625)"/>
      <path id="Arial-BoldMT-76" d="M 1372 0 
L 34 3319 
L 956 3319 
L 1581 1625 
L 1763 1059 
Q 1834 1275 1853 1344 
Q 1897 1484 1947 1625 
L 2578 3319 
L 3481 3319 
L 2163 0 
L 1372 0 
z
" transform="scale(0.015625)"/>
      <path id="Arial-BoldMT-79" d="M 44 3319 
L 978 3319 
L 1772 963 
L 2547 3319 
L 3456 3319 
L 2284 125 
L 2075 -453 
Q 1959 -744 1854 -897 
Q 1750 -1050 1614 -1145 
Q 1478 -1241 1279 -1294 
Q 1081 -1347 831 -1347 
Q 578 -1347 334 -1294 
L 256 -606 
Q 463 -647 628 -647 
Q 934 -647 1081 -467 
Q 1228 -288 1306 -9 
L 44 3319 
z
" transform="scale(0.015625)"/>
      <path id="Arial-BoldMT-6c" d="M 459 0 
L 459 4581 
L 1338 4581 
L 1338 0 
L 459 0 
z
" transform="scale(0.015625)"/>
      <path id="Arial-BoldMT-6e" d="M 3478 0 
L 2600 0 
L 2600 1694 
Q 2600 2231 2544 2389 
Q 2488 2547 2361 2634 
Q 2234 2722 2056 2722 
Q 1828 2722 1647 2597 
Q 1466 2472 1398 2265 
Q 1331 2059 1331 1503 
L 1331 0 
L 453 0 
L 453 3319 
L 1269 3319 
L 1269 2831 
Q 1703 3394 2363 3394 
Q 2653 3394 2893 3289 
Q 3134 3184 3257 3021 
Q 3381 2859 3429 2653 
Q 3478 2447 3478 2063 
L 3478 0 
z
" transform="scale(0.015625)"/>
      <path id="Arial-BoldMT-67" d="M 378 -219 
L 1381 -341 
Q 1406 -516 1497 -581 
Q 1622 -675 1891 -675 
Q 2234 -675 2406 -572 
Q 2522 -503 2581 -350 
Q 2622 -241 2622 53 
L 2622 538 
Q 2228 0 1628 0 
Q 959 0 569 566 
Q 263 1013 263 1678 
Q 263 2513 664 2953 
Q 1066 3394 1663 3394 
Q 2278 3394 2678 2853 
L 2678 3319 
L 3500 3319 
L 3500 341 
Q 3500 -247 3403 -537 
Q 3306 -828 3131 -993 
Q 2956 -1159 2664 -1253 
Q 2372 -1347 1925 -1347 
Q 1081 -1347 728 -1058 
Q 375 -769 375 -325 
Q 375 -281 378 -219 
z
M 1163 1728 
Q 1163 1200 1367 954 
Q 1572 709 1872 709 
Q 2194 709 2416 961 
Q 2638 1213 2638 1706 
Q 2638 2222 2425 2472 
Q 2213 2722 1888 2722 
Q 1572 2722 1367 2476 
Q 1163 2231 1163 1728 
z
" transform="scale(0.015625)"/>
     </defs>
     <use xlink:href="#Arial-BoldMT-41"/>
     <use xlink:href="#Arial-BoldMT-63" x="72.216797"/>
     <use xlink:href="#Arial-BoldMT-74" x="127.832031"/>
     <use xlink:href="#Arial-BoldMT-69" x="161.132812"/>
     <use xlink:href="#Arial-BoldMT-76" x="188.916016"/>
     <use xlink:href="#Arial-BoldMT-65" x="244.53125"/>
     <use xlink:href="#Arial-BoldMT-20" x="300.146484"/>
     <use xlink:href="#Arial-BoldMT-43" x="327.929688"/>
     <use xlink:href="#Arial-BoldMT-79" x="400.146484"/>
     <use xlink:href="#Arial-BoldMT-63" x="455.761719"/>
     <use xlink:href="#Arial-BoldMT-6c" x="511.376953"/>
     <use xlink:href="#Arial-BoldMT-69" x="539.160156"/>
     <use xlink:href="#Arial-BoldMT-6e" x="566.943359"/>
     <use xlink:href="#Arial-BoldMT-67" x="628.027344"/>
    </g>
   </g>
   <g id="text_3">
    <g id="patch_2">
     <path d="M 27.490909 230.809375 
L 388.709659 230.809375 
Q 391.709659 230.809375 391.709659 227.809375 
L 391.709659 217.8 
Q 391.709659 214.8 388.709659 214.8 
L 27.490909 214.8 
Q 24.490909 214.8 24.490909 217.8 
L 24.490909 227.809375 
Q 24.490909 230.809375 27.490909 230.809375 
z
" style="fill: #e8f4fd; stroke: #000000; stroke-width: 0.3; stroke-linejoin: miter"/>
    </g>
    <!-- bikes_street*1.5 + bikes_bike_lane*0.8 + bikes_crosswalk*2.0 -->
    <g style="fill: #262626" transform="translate(27.490909 225.451563) scale(0.1 -0.1)">
     <defs>
      <path id="DejaVuSansMono-62" d="M 2869 1747 
Q 2869 2416 2656 2756 
Q 2444 3097 2028 3097 
Q 1609 3097 1393 2755 
Q 1178 2413 1178 1747 
Q 1178 1084 1393 740 
Q 1609 397 2028 397 
Q 2444 397 2656 737 
Q 2869 1078 2869 1747 
z
M 1178 3053 
Q 1316 3309 1558 3446 
Q 1800 3584 2119 3584 
Q 2750 3584 3112 3098 
Q 3475 2613 3475 1759 
Q 3475 894 3111 401 
Q 2747 -91 2113 -91 
Q 1800 -91 1561 45 
Q 1322 181 1178 441 
L 1178 0 
L 603 0 
L 603 4863 
L 1178 4863 
L 1178 3053 
z
" transform="scale(0.015625)"/>
      <path id="DejaVuSansMono-69" d="M 800 3500 
L 2272 3500 
L 2272 447 
L 3413 447 
L 3413 0 
L 556 0 
L 556 447 
L 1697 447 
L 1697 3053 
L 800 3053 
L 800 3500 
z
M 1697 4863 
L 2272 4863 
L 2272 4134 
L 1697 4134 
L 1697 4863 
z
" transform="scale(0.015625)"/>
      <path id="DejaVuSansMono-6b" d="M 738 4863 
L 1331 4863 
L 1331 2047 
L 2841 3500 
L 3541 3500 
L 2163 2181 
L 3756 0 
L 3053 0 
L 1759 1806 
L 1331 1403 
L 1331 0 
L 738 0 
L 738 4863 
z
" transform="scale(0.015625)"/>
      <path id="DejaVuSansMono-65" d="M 3475 1894 
L 3475 1613 
L 984 1613 
L 984 1594 
Q 984 1022 1282 709 
Q 1581 397 2125 397 
Q 2400 397 2700 484 
Q 3000 572 3341 750 
L 3341 178 
Q 3013 44 2708 -23 
Q 2403 -91 2119 -91 
Q 1303 -91 843 398 
Q 384 888 384 1747 
Q 384 2584 834 3084 
Q 1284 3584 2034 3584 
Q 2703 3584 3089 3131 
Q 3475 2678 3475 1894 
z
M 2900 2063 
Q 2888 2569 2661 2833 
Q 2434 3097 2009 3097 
Q 1594 3097 1325 2822 
Q 1056 2547 1006 2059 
L 2900 2063 
z
" transform="scale(0.015625)"/>
      <path id="DejaVuSansMono-73" d="M 3041 3378 
L 3041 2816 
Q 2794 2959 2544 3031 
Q 2294 3103 2034 3103 
Q 1644 3103 1451 2976 
Q 1259 2850 1259 2591 
Q 1259 2356 1403 2240 
Q 1547 2125 2119 2016 
L 2350 1972 
Q 2778 1891 2998 1647 
Q 3219 1403 3219 1013 
Q 3219 494 2850 201 
Q 2481 -91 1825 -91 
Q 1566 -91 1281 -36 
Q 997 19 666 128 
L 666 722 
Q 988 556 1281 473 
Q 1575 391 1838 391 
Q 2219 391 2428 545 
Q 2638 700 2638 978 
Q 2638 1378 1872 1531 
L 1847 1538 
L 1631 1581 
Q 1134 1678 906 1908 
Q 678 2138 678 2534 
Q 678 3038 1018 3311 
Q 1359 3584 1991 3584 
Q 2272 3584 2531 3532 
Q 2791 3481 3041 3378 
z
" transform="scale(0.015625)"/>
      <path id="DejaVuSansMono-5f" d="M 3853 -1259 
L 3853 -1509 
L 0 -1509 
L 0 -1259 
L 3853 -1259 
z
" transform="scale(0.015625)"/>
      <path id="DejaVuSansMono-74" d="M 1919 4494 
L 1919 3500 
L 3225 3500 
L 3225 3053 
L 1919 3053 
L 1919 1153 
Q 1919 766 2066 612 
Q 2213 459 2578 459 
L 3225 459 
L 3225 0 
L 2522 0 
Q 1875 0 1609 259 
Q 1344 519 1344 1153 
L 1344 3053 
L 409 3053 
L 409 3500 
L 1344 3500 
L 1344 4494 
L 1919 4494 
z
" transform="scale(0.015625)"/>
      <path id="DejaVuSansMono-72" d="M 3609 2778 
Q 3425 2922 3234 2987 
Q 3044 3053 2816 3053 
Q 2278 3053 1993 2715 
Q 1709 2378 1709 1741 
L 1709 0 
L 1131 0 
L 1131 3500 
L 1709 3500 
L 1709 2816 
Q 1853 3188 2151 3386 
Q 2450 3584 2859 3584 
Q 3072 3584 3256 3531 
Q 3441 3478 3609 3366 
L 3609 2778 
z
" transform="scale(0.015625)"/>
      <path id="DejaVuSansMono-2a" d="M 3334 3897 
L 2216 3291 
L 3334 2681 
L 3156 2375 
L 2106 3009 
L 2106 1831 
L 1747 1831 
L 1747 3009 
L 697 2375 
L 519 2681 
L 1638 3291 
L 519 3897 
L 697 4206 
L 1747 3572 
L 1747 4750 
L 2106 4750 
L 2106 3572 
L 3156 4206 
L 3334 3897 
z
" transform="scale(0.015625)"/>
      <path id="DejaVuSansMono-31" d="M 844 531 
L 1825 531 
L 1825 4097 
L 769 3859 
L 769 4434 
L 1819 4666 
L 2450 4666 
L 2450 531 
L 3419 531 
L 3419 0 
L 844 0 
L 844 531 
z
" transform="scale(0.015625)"/>
      <path id="DejaVuSansMono-2e" d="M 1528 953 
L 2316 953 
L 2316 0 
L 1528 0 
L 1528 953 
z
" transform="scale(0.015625)"/>
      <path id="DejaVuSansMono-35" d="M 647 4666 
L 3009 4666 
L 3009 4134 
L 1222 4134 
L 1222 2988 
Q 1356 3038 1492 3061 
Q 1628 3084 1766 3084 
Q 2491 3084 2916 2656 
Q 3341 2228 3341 1497 
Q 3341 759 2895 334 
Q 2450 -91 1678 -91 
Q 1306 -91 998 -41 
Q 691 9 447 109 
L 447 750 
Q 734 594 1025 517 
Q 1316 441 1619 441 
Q 2141 441 2423 716 
Q 2706 991 2706 1497 
Q 2706 1997 2414 2275 
Q 2122 2553 1600 2553 
Q 1347 2553 1106 2495 
Q 866 2438 647 2322 
L 647 4666 
z
" transform="scale(0.015625)"/>
      <path id="DejaVuSansMono-20" transform="scale(0.015625)"/>
      <path id="DejaVuSansMono-2b" d="M 2188 3659 
L 2188 2272 
L 3578 2272 
L 3578 1741 
L 2188 1741 
L 2188 353 
L 1663 353 
L 1663 1741 
L 275 1741 
L 275 2272 
L 1663 2272 
L 1663 3659 
L 2188 3659 
z
" transform="scale(0.015625)"/>
      <path id="DejaVuSansMono-6c" d="M 1997 1269 
Q 1997 881 2139 684 
Q 2281 488 2559 488 
L 3231 488 
L 3231 0 
L 2503 0 
Q 1988 0 1705 331 
Q 1422 663 1422 1269 
L 1422 4447 
L 500 4447 
L 500 4897 
L 1997 4897 
L 1997 1269 
z
" transform="scale(0.015625)"/>
      <path id="DejaVuSansMono-61" d="M 2194 1759 
L 2003 1759 
Q 1500 1759 1245 1582 
Q 991 1406 991 1056 
Q 991 741 1181 566 
Q 1372 391 1709 391 
Q 2184 391 2456 720 
Q 2728 1050 2731 1631 
L 2731 1759 
L 2194 1759 
z
M 3309 1997 
L 3309 0 
L 2731 0 
L 2731 519 
Q 2547 206 2267 57 
Q 1988 -91 1588 -91 
Q 1053 -91 734 211 
Q 416 513 416 1019 
Q 416 1603 808 1906 
Q 1200 2209 1959 2209 
L 2731 2209 
L 2731 2300 
Q 2728 2719 2518 2908 
Q 2309 3097 1850 3097 
Q 1556 3097 1256 3012 
Q 956 2928 672 2766 
L 672 3341 
Q 991 3463 1283 3523 
Q 1575 3584 1850 3584 
Q 2284 3584 2592 3456 
Q 2900 3328 3091 3072 
Q 3209 2916 3259 2686 
Q 3309 2456 3309 1997 
z
" transform="scale(0.015625)"/>
      <path id="DejaVuSansMono-6e" d="M 3284 2169 
L 3284 0 
L 2706 0 
L 2706 2169 
Q 2706 2641 2540 2862 
Q 2375 3084 2022 3084 
Q 1619 3084 1401 2798 
Q 1184 2513 1184 1978 
L 1184 0 
L 609 0 
L 609 3500 
L 1184 3500 
L 1184 2975 
Q 1338 3275 1600 3429 
Q 1863 3584 2222 3584 
Q 2756 3584 3020 3232 
Q 3284 2881 3284 2169 
z
" transform="scale(0.015625)"/>
      <path id="DejaVuSansMono-30" d="M 1509 2344 
Q 1509 2516 1629 2641 
Q 1750 2766 1919 2766 
Q 2094 2766 2219 2641 
Q 2344 2516 2344 2344 
Q 2344 2169 2220 2047 
Q 2097 1925 1919 1925 
Q 1744 1925 1626 2044 
Q 1509 2163 1509 2344 
z
M 1925 4250 
Q 1484 4250 1267 3775 
Q 1050 3300 1050 2328 
Q 1050 1359 1267 884 
Q 1484 409 1925 409 
Q 2369 409 2586 884 
Q 2803 1359 2803 2328 
Q 2803 3300 2586 3775 
Q 2369 4250 1925 4250 
z
M 1925 4750 
Q 2672 4750 3055 4137 
Q 3438 3525 3438 2328 
Q 3438 1134 3055 521 
Q 2672 -91 1925 -91 
Q 1178 -91 797 521 
Q 416 1134 416 2328 
Q 416 3525 797 4137 
Q 1178 4750 1925 4750 
z
" transform="scale(0.015625)"/>
      <path id="DejaVuSansMono-38" d="M 1925 2216 
Q 1503 2216 1273 1980 
Q 1044 1744 1044 1313 
Q 1044 881 1276 642 
Q 1509 403 1925 403 
Q 2350 403 2579 639 
Q 2809 875 2809 1313 
Q 2809 1741 2576 1978 
Q 2344 2216 1925 2216 
z
M 1375 2478 
Q 972 2581 745 2862 
Q 519 3144 519 3541 
Q 519 4097 897 4423 
Q 1275 4750 1925 4750 
Q 2578 4750 2956 4423 
Q 3334 4097 3334 3541 
Q 3334 3144 3107 2862 
Q 2881 2581 2478 2478 
Q 2947 2375 3195 2062 
Q 3444 1750 3444 1253 
Q 3444 622 3041 265 
Q 2638 -91 1925 -91 
Q 1213 -91 811 264 
Q 409 619 409 1247 
Q 409 1747 657 2061 
Q 906 2375 1375 2478 
z
M 1147 3481 
Q 1147 3106 1347 2909 
Q 1547 2713 1925 2713 
Q 2306 2713 2506 2909 
Q 2706 3106 2706 3481 
Q 2706 3863 2507 4063 
Q 2309 4263 1925 4263 
Q 1547 4263 1347 4061 
Q 1147 3859 1147 3481 
z
" transform="scale(0.015625)"/>
      <path id="DejaVuSansMono-63" d="M 3316 178 
Q 3084 44 2839 -23 
Q 2594 -91 2338 -91 
Q 1525 -91 1067 396 
Q 609 884 609 1747 
Q 609 2609 1067 3096 
Q 1525 3584 2338 3584 
Q 2591 3584 2831 3518 
Q 3072 3453 3316 3316 
L 3316 2713 
Q 3088 2916 2858 3006 
Q 2628 3097 2338 3097 
Q 1797 3097 1506 2747 
Q 1216 2397 1216 1747 
Q 1216 1100 1508 748 
Q 1800 397 2338 397 
Q 2638 397 2875 489 
Q 3113 581 3316 775 
L 3316 178 
z
" transform="scale(0.015625)"/>
      <path id="DejaVuSansMono-6f" d="M 1925 3097 
Q 1488 3097 1263 2756 
Q 1038 2416 1038 1747 
Q 1038 1081 1263 739 
Q 1488 397 1925 397 
Q 2366 397 2591 739 
Q 2816 1081 2816 1747 
Q 2816 2416 2591 2756 
Q 2366 3097 1925 3097 
z
M 1925 3584 
Q 2653 3584 3039 3112 
Q 3425 2641 3425 1747 
Q 3425 850 3040 379 
Q 2656 -91 1925 -91 
Q 1197 -91 812 379 
Q 428 850 428 1747 
Q 428 2641 812 3112 
Q 1197 3584 1925 3584 
z
" transform="scale(0.015625)"/>
      <path id="DejaVuSansMono-77" d="M 0 3500 
L 569 3500 
L 1178 672 
L 1678 2478 
L 2169 2478 
L 2675 672 
L 3284 3500 
L 3853 3500 
L 3034 0 
L 2484 0 
L 1925 1919 
L 1369 0 
L 819 0 
L 0 3500 
z
" transform="scale(0.015625)"/>
      <path id="DejaVuSansMono-32" d="M 1166 531 
L 3309 531 
L 3309 0 
L 475 0 
L 475 531 
Q 1059 1147 1496 1619 
Q 1934 2091 2100 2284 
Q 2413 2666 2522 2902 
Q 2631 3138 2631 3384 
Q 2631 3775 2401 3997 
Q 2172 4219 1772 4219 
Q 1488 4219 1175 4116 
Q 863 4013 513 3803 
L 513 4441 
Q 834 4594 1145 4672 
Q 1456 4750 1759 4750 
Q 2444 4750 2861 4386 
Q 3278 4022 3278 3431 
Q 3278 3131 3139 2831 
Q 3000 2531 2688 2169 
Q 2513 1966 2180 1606 
Q 1847 1247 1166 531 
z
" transform="scale(0.015625)"/>
     </defs>
     <use xlink:href="#DejaVuSansMono-62"/>
     <use xlink:href="#DejaVuSansMono-69" x="60.205078"/>
     <use xlink:href="#DejaVuSansMono-6b" x="120.410156"/>
     <use xlink:href="#DejaVuSansMono-65" x="180.615234"/>
     <use xlink:href="#DejaVuSansMono-73" x="240.820312"/>
     <use xlink:href="#DejaVuSansMono-5f" x="301.025391"/>
     <use xlink:href="#DejaVuSansMono-73" x="361.230469"/>
     <use xlink:href="#DejaVuSansMono-74" x="421.435547"/>
     <use xlink:href="#DejaVuSansMono-72" x="481.640625"/>
     <use xlink:href="#DejaVuSansMono-65" x="541.845703"/>
     <use xlink:href="#DejaVuSansMono-65" x="602.050781"/>
     <use xlink:href="#DejaVuSansMono-74" x="662.255859"/>
     <use xlink:href="#DejaVuSansMono-2a" x="722.460938"/>
     <use xlink:href="#DejaVuSansMono-31" x="782.666016"/>
     <use xlink:href="#DejaVuSansMono-2e" x="842.871094"/>
     <use xlink:href="#DejaVuSansMono-35" x="903.076172"/>
     <use xlink:href="#DejaVuSansMono-20" x="963.28125"/>
     <use xlink:href="#DejaVuSansMono-2b" x="1023.486328"/>
     <use xlink:href="#DejaVuSansMono-20" x="1083.691406"/>
     <use xlink:href="#DejaVuSansMono-62" x="1143.896484"/>
     <use xlink:href="#DejaVuSansMono-69" x="1204.101562"/>
     <use xlink:href="#DejaVuSansMono-6b" x="1264.306641"/>
     <use xlink:href="#DejaVuSansMono-65" x="1324.511719"/>
     <use xlink:href="#DejaVuSansMono-73" x="1384.716797"/>
     <use xlink:href="#DejaVuSansMono-5f" x="1444.921875"/>
     <use xlink:href="#DejaVuSansMono-62" x="1505.126953"/>
     <use xlink:href="#DejaVuSansMono-69" x="1565.332031"/>
     <use xlink:href="#DejaVuSansMono-6b" x="1625.537109"/>
     <use xlink:href="#DejaVuSansMono-65" x="1685.742188"/>
     <use xlink:href="#DejaVuSansMono-5f" x="1745.947266"/>
     <use xlink:href="#DejaVuSansMono-6c" x="1806.152344"/>
     <use xlink:href="#DejaVuSansMono-61" x="1866.357422"/>
     <use xlink:href="#DejaVuSansMono-6e" x="1926.5625"/>
     <use xlink:href="#DejaVuSansMono-65" x="1986.767578"/>
     <use xlink:href="#DejaVuSansMono-2a" x="2046.972656"/>
     <use xlink:href="#DejaVuSansMono-30" x="2107.177734"/>
     <use xlink:href="#DejaVuSansMono-2e" x="2167.382812"/>
     <use xlink:href="#DejaVuSansMono-38" x="2227.587891"/>
     <use xlink:href="#DejaVuSansMono-20" x="2287.792969"/>
     <use xlink:href="#DejaVuSansMono-2b" x="2347.998047"/>
     <use xlink:href="#DejaVuSansMono-20" x="2408.203125"/>
     <use xlink:href="#DejaVuSansMono-62" x="2468.408203"/>
     <use xlink:href="#DejaVuSansMono-69" x="2528.613281"/>
     <use xlink:href="#DejaVuSansMono-6b" x="2588.818359"/>
     <use xlink:href="#DejaVuSansMono-65" x="2649.023438"/>
     <use xlink:href="#DejaVuSansMono-73" x="2709.228516"/>
     <use xlink:href="#DejaVuSansMono-5f" x="2769.433594"/>
     <use xlink:href="#DejaVuSansMono-63" x="2829.638672"/>
     <use xlink:href="#DejaVuSansMono-72" x="2889.84375"/>
     <use xlink:href="#DejaVuSansMono-6f" x="2950.048828"/>
     <use xlink:href="#DejaVuSansMono-73" x="3010.253906"/>
     <use xlink:href="#DejaVuSansMono-73" x="3070.458984"/>
     <use xlink:href="#DejaVuSansMono-77" x="3130.664062"/>
     <use xlink:href="#DejaVuSansMono-61" x="3190.869141"/>
     <use xlink:href="#DejaVuSansMono-6c" x="3251.074219"/>
     <use xlink:href="#DejaVuSansMono-6b" x="3311.279297"/>
     <use xlink:href="#DejaVuSansMono-2a" x="3371.484375"/>
     <use xlink:href="#DejaVuSansMono-32" x="3431.689453"/>
     <use xlink:href="#DejaVuSansMono-2e" x="3491.894531"/>
     <use xlink:href="#DejaVuSansMono-30" x="3552.099609"/>
    </g>
   </g>
   <g id="text_4">
    <!-- Weighted sum of bike positions -->
    <g style="fill: #262626" transform="translate(27.490909 252.071719) scale(0.09 -0.09)">
     <defs>
      <path id="Arial-ItalicMT-57" d="M 1081 0 
L 800 4581 
L 1422 4581 
L 1528 2316 
Q 1538 2153 1559 1434 
Q 1566 1234 1566 1153 
Q 1566 1100 1563 844 
Q 1944 1625 2113 1944 
L 3506 4581 
L 4138 4581 
L 4291 1903 
Q 4316 1444 4325 797 
Q 4381 956 4525 1272 
Q 4753 1781 4863 2000 
L 6169 4581 
L 6794 4581 
L 4463 0 
L 3806 0 
L 3653 2775 
Q 3631 3131 3619 3650 
Q 3428 3216 3300 2975 
L 1713 0 
L 1081 0 
z
" transform="scale(0.015625)"/>
      <path id="Arial-ItalicMT-65" d="M 2650 1128 
L 3200 1072 
Q 3081 663 2654 294 
Q 2228 -75 1638 -75 
Q 1269 -75 961 95 
Q 653 266 492 591 
Q 331 916 331 1331 
Q 331 1875 582 2386 
Q 834 2897 1234 3145 
Q 1634 3394 2100 3394 
Q 2694 3394 3048 3025 
Q 3403 2656 3403 2019 
Q 3403 1775 3359 1519 
L 916 1519 
Q 903 1422 903 1344 
Q 903 878 1117 633 
Q 1331 388 1641 388 
Q 1931 388 2212 578 
Q 2494 769 2650 1128 
z
M 1006 1950 
L 2869 1950 
Q 2872 2038 2872 2075 
Q 2872 2500 2659 2726 
Q 2447 2953 2113 2953 
Q 1750 2953 1451 2703 
Q 1153 2453 1006 1950 
z
" transform="scale(0.015625)"/>
      <path id="Arial-ItalicMT-69" d="M 1016 3941 
L 1150 4581 
L 1713 4581 
L 1578 3941 
L 1016 3941 
z
M 191 0 
L 884 3319 
L 1450 3319 
L 756 0 
L 191 0 
z
" transform="scale(0.015625)"/>
      <path id="Arial-ItalicMT-67" d="M 181 -300 
L 753 -353 
Q 747 -547 800 -644 
Q 853 -741 969 -794 
Q 1122 -863 1366 -863 
Q 1878 -863 2103 -597 
Q 2250 -419 2375 178 
L 2431 447 
Q 1991 0 1494 0 
Q 991 0 652 370 
Q 313 741 313 1419 
Q 313 1978 580 2447 
Q 847 2916 1215 3155 
Q 1584 3394 1975 3394 
Q 2628 3394 2981 2775 
L 3094 3319 
L 3613 3319 
L 2944 116 
Q 2834 -413 2656 -708 
Q 2478 -1003 2161 -1165 
Q 1844 -1328 1428 -1328 
Q 1028 -1328 739 -1225 
Q 450 -1122 308 -923 
Q 166 -725 166 -469 
Q 166 -391 181 -300 
z
M 888 1469 
Q 888 1128 953 956 
Q 1047 716 1220 589 
Q 1394 463 1606 463 
Q 1884 463 2159 658 
Q 2434 853 2604 1262 
Q 2775 1672 2775 2044 
Q 2775 2453 2548 2695 
Q 2322 2938 1988 2938 
Q 1781 2938 1587 2827 
Q 1394 2716 1226 2489 
Q 1059 2263 973 1947 
Q 888 1631 888 1469 
z
" transform="scale(0.015625)"/>
      <path id="Arial-ItalicMT-68" d="M 213 0 
L 1169 4581 
L 1734 4581 
L 1369 2822 
Q 1684 3128 1956 3261 
Q 2228 3394 2516 3394 
Q 2928 3394 3156 3176 
Q 3384 2959 3384 2603 
Q 3384 2428 3284 1959 
L 2875 0 
L 2309 0 
L 2731 2009 
Q 2822 2447 2822 2559 
Q 2822 2722 2709 2825 
Q 2597 2928 2384 2928 
Q 2078 2928 1800 2767 
Q 1522 2606 1364 2326 
Q 1206 2047 1075 1425 
L 778 0 
L 213 0 
z
" transform="scale(0.015625)"/>
      <path id="Arial-ItalicMT-74" d="M 1534 459 
L 1441 -3 
Q 1238 -56 1047 -56 
Q 709 -56 509 109 
Q 359 234 359 450 
Q 359 559 441 953 
L 844 2881 
L 397 2881 
L 488 3319 
L 934 3319 
L 1106 4134 
L 1753 4525 
L 1500 3319 
L 2056 3319 
L 1963 2881 
L 1409 2881 
L 1025 1047 
Q 953 697 953 628 
Q 953 528 1011 475 
Q 1069 422 1200 422 
Q 1388 422 1534 459 
z
" transform="scale(0.015625)"/>
      <path id="Arial-ItalicMT-64" d="M 2450 481 
Q 1966 -75 1438 -75 
Q 966 -75 652 273 
Q 338 622 338 1284 
Q 338 1891 586 2392 
Q 834 2894 1207 3144 
Q 1581 3394 1956 3394 
Q 2575 3394 2891 2797 
L 3266 4581 
L 3828 4581 
L 2872 0 
L 2350 0 
L 2450 481 
z
M 900 1391 
Q 900 1044 969 844 
Q 1038 644 1203 511 
Q 1369 378 1600 378 
Q 1984 378 2297 778 
Q 2716 1309 2716 2091 
Q 2716 2484 2509 2706 
Q 2303 2928 1991 2928 
Q 1788 2928 1620 2837 
Q 1453 2747 1289 2530 
Q 1125 2313 1012 1978 
Q 900 1644 900 1391 
z
" transform="scale(0.015625)"/>
      <path id="Arial-ItalicMT-20" transform="scale(0.015625)"/>
      <path id="Arial-ItalicMT-73" d="M 266 1134 
L 831 1169 
Q 831 925 906 753 
Q 981 581 1182 472 
Q 1384 363 1653 363 
Q 2028 363 2215 513 
Q 2403 663 2403 866 
Q 2403 1013 2291 1144 
Q 2175 1275 1726 1467 
Q 1278 1659 1153 1738 
Q 944 1866 837 2039 
Q 731 2213 731 2438 
Q 731 2831 1043 3112 
Q 1356 3394 1919 3394 
Q 2544 3394 2870 3105 
Q 3197 2816 3209 2344 
L 2656 2306 
Q 2644 2606 2444 2781 
Q 2244 2956 1878 2956 
Q 1584 2956 1421 2822 
Q 1259 2688 1259 2531 
Q 1259 2375 1400 2256 
Q 1494 2175 1884 2006 
Q 2534 1725 2703 1563 
Q 2972 1303 2972 931 
Q 2972 684 2820 446 
Q 2669 209 2358 67 
Q 2047 -75 1625 -75 
Q 1050 -75 647 209 
Q 244 494 266 1134 
z
" transform="scale(0.015625)"/>
      <path id="Arial-ItalicMT-75" d="M 2478 600 
Q 1881 -75 1256 -75 
Q 872 -75 636 145 
Q 400 366 400 684 
Q 400 894 506 1403 
L 906 3319 
L 1472 3319 
L 1028 1197 
Q 972 931 972 784 
Q 972 597 1086 492 
Q 1200 388 1422 388 
Q 1659 388 1886 503 
Q 2113 619 2277 816 
Q 2441 1013 2544 1281 
Q 2613 1453 2703 1884 
L 3003 3319 
L 3569 3319 
L 2875 0 
L 2353 0 
L 2478 600 
z
" transform="scale(0.015625)"/>
      <path id="Arial-ItalicMT-6d" d="M 209 0 
L 903 3319 
L 1469 3319 
L 1353 2772 
Q 1669 3125 1917 3259 
Q 2166 3394 2456 3394 
Q 2766 3394 2973 3230 
Q 3181 3066 3247 2772 
Q 3500 3084 3779 3239 
Q 4059 3394 4369 3394 
Q 4784 3394 4992 3197 
Q 5200 3000 5200 2644 
Q 5200 2491 5128 2138 
L 4681 0 
L 4116 0 
L 4572 2194 
Q 4631 2463 4631 2578 
Q 4631 2741 4528 2834 
Q 4425 2928 4238 2928 
Q 3984 2928 3721 2775 
Q 3459 2622 3314 2373 
Q 3169 2125 3059 1609 
L 2722 0 
L 2156 0 
L 2625 2241 
Q 2675 2469 2675 2566 
Q 2675 2728 2573 2828 
Q 2472 2928 2309 2928 
Q 2069 2928 1805 2775 
Q 1541 2622 1375 2348 
Q 1209 2075 1103 1569 
L 775 0 
L 209 0 
z
" transform="scale(0.015625)"/>
      <path id="Arial-ItalicMT-6f" d="M 313 1259 
Q 313 2231 884 2869 
Q 1356 3394 2122 3394 
Q 2722 3394 3089 3019 
Q 3456 2644 3456 2006 
Q 3456 1434 3225 942 
Q 2994 450 2567 187 
Q 2141 -75 1669 -75 
Q 1281 -75 964 90 
Q 647 256 480 559 
Q 313 863 313 1259 
z
M 878 1316 
Q 878 847 1103 605 
Q 1328 363 1675 363 
Q 1856 363 2034 436 
Q 2213 509 2366 659 
Q 2519 809 2626 1001 
Q 2734 1194 2800 1416 
Q 2897 1725 2897 2009 
Q 2897 2459 2670 2707 
Q 2444 2956 2100 2956 
Q 1834 2956 1615 2829 
Q 1397 2703 1220 2459 
Q 1044 2216 961 1892 
Q 878 1569 878 1316 
z
" transform="scale(0.015625)"/>
      <path id="Arial-ItalicMT-66" d="M 291 0 
L 894 2881 
L 388 2881 
L 478 3319 
L 984 3319 
L 1081 3791 
Q 1156 4144 1236 4300 
Q 1316 4456 1495 4557 
Q 1675 4659 1984 4659 
Q 2200 4659 2609 4569 
L 2506 4075 
Q 2219 4150 2025 4150 
Q 1859 4150 1773 4067 
Q 1688 3984 1625 3675 
L 1550 3319 
L 2181 3319 
L 2091 2881 
L 1459 2881 
L 856 0 
L 291 0 
z
" transform="scale(0.015625)"/>
      <path id="Arial-ItalicMT-62" d="M 213 0 
L 1169 4581 
L 1734 4581 
L 1394 2944 
Q 1663 3191 1881 3292 
Q 2100 3394 2338 3394 
Q 2803 3394 3114 3047 
Q 3425 2700 3425 2038 
Q 3425 1597 3300 1231 
Q 3175 866 2990 617 
Q 2806 369 2609 220 
Q 2413 72 2206 -1 
Q 2000 -75 1809 -75 
Q 1481 -75 1231 98 
Q 981 272 841 628 
L 709 0 
L 213 0 
z
M 1050 1363 
L 1047 1256 
Q 1047 831 1250 609 
Q 1453 388 1756 388 
Q 2053 388 2301 595 
Q 2550 803 2709 1243 
Q 2869 1684 2869 2056 
Q 2869 2475 2667 2706 
Q 2466 2938 2169 2938 
Q 1863 2938 1606 2702 
Q 1350 2466 1178 1975 
Q 1050 1609 1050 1363 
z
" transform="scale(0.015625)"/>
      <path id="Arial-ItalicMT-6b" d="M 219 0 
L 1178 4581 
L 1741 4581 
L 1147 1741 
L 2797 3319 
L 3544 3319 
L 2128 2081 
L 2984 0 
L 2366 0 
L 1703 1703 
L 1016 1109 
L 784 0 
L 219 0 
z
" transform="scale(0.015625)"/>
      <path id="Arial-ItalicMT-70" d="M -66 -1272 
L 894 3319 
L 1416 3319 
L 1319 2856 
Q 1609 3159 1839 3276 
Q 2069 3394 2325 3394 
Q 2800 3394 3112 3048 
Q 3425 2703 3425 2059 
Q 3425 1541 3253 1114 
Q 3081 688 2831 428 
Q 2581 169 2325 47 
Q 2069 -75 1800 -75 
Q 1203 -75 875 531 
L 500 -1272 
L -66 -1272 
z
M 1053 1356 
Q 1053 984 1106 841 
Q 1184 638 1362 513 
Q 1541 388 1775 388 
Q 2263 388 2563 936 
Q 2863 1484 2863 2056 
Q 2863 2478 2661 2708 
Q 2459 2938 2159 2938 
Q 1944 2938 1759 2823 
Q 1575 2709 1417 2482 
Q 1259 2256 1156 1928 
Q 1053 1600 1053 1356 
z
" transform="scale(0.015625)"/>
      <path id="Arial-ItalicMT-6e" d="M 213 0 
L 906 3319 
L 1419 3319 
L 1297 2741 
Q 1631 3081 1922 3237 
Q 2213 3394 2516 3394 
Q 2919 3394 3148 3175 
Q 3378 2956 3378 2591 
Q 3378 2406 3297 2009 
L 2875 0 
L 2309 0 
L 2750 2103 
Q 2816 2409 2816 2556 
Q 2816 2722 2702 2825 
Q 2588 2928 2372 2928 
Q 1938 2928 1598 2615 
Q 1259 2303 1100 1544 
L 778 0 
L 213 0 
z
" transform="scale(0.015625)"/>
     </defs>
     <use xlink:href="#Arial-ItalicMT-57"/>
     <use xlink:href="#Arial-ItalicMT-65" x="92.634766"/>
     <use xlink:href="#Arial-ItalicMT-69" x="148.25"/>
     <use xlink:href="#Arial-ItalicMT-67" x="170.466797"/>
     <use xlink:href="#Arial-ItalicMT-68" x="226.082031"/>
     <use xlink:href="#Arial-ItalicMT-74" x="281.697266"/>
     <use xlink:href="#Arial-ItalicMT-65" x="309.480469"/>
     <use xlink:href="#Arial-ItalicMT-64" x="365.095703"/>
     <use xlink:href="#Arial-ItalicMT-20" x="420.710938"/>
     <use xlink:href="#Arial-ItalicMT-73" x="448.494141"/>
     <use xlink:href="#Arial-ItalicMT-75" x="498.494141"/>
     <use xlink:href="#Arial-ItalicMT-6d" x="554.109375"/>
     <use xlink:href="#Arial-ItalicMT-20" x="637.410156"/>
     <use xlink:href="#Arial-ItalicMT-6f" x="665.193359"/>
     <use xlink:href="#Arial-ItalicMT-66" x="720.808594"/>
     <use xlink:href="#Arial-ItalicMT-20" x="748.591797"/>
     <use xlink:href="#Arial-ItalicMT-62" x="776.375"/>
     <use xlink:href="#Arial-ItalicMT-69" x="831.990234"/>
     <use xlink:href="#Arial-ItalicMT-6b" x="854.207031"/>
     <use xlink:href="#Arial-ItalicMT-65" x="904.207031"/>
     <use xlink:href="#Arial-ItalicMT-20" x="959.822266"/>
     <use xlink:href="#Arial-ItalicMT-70" x="987.605469"/>
     <use xlink:href="#Arial-ItalicMT-6f" x="1043.220703"/>
     <use xlink:href="#Arial-ItalicMT-73" x="1098.835938"/>
     <use xlink:href="#Arial-ItalicMT-69" x="1148.835938"/>
     <use xlink:href="#Arial-ItalicMT-74" x="1171.052734"/>
     <use xlink:href="#Arial-ItalicMT-69" x="1198.835938"/>
     <use xlink:href="#Arial-ItalicMT-6f" x="1221.052734"/>
     <use xlink:href="#Arial-ItalicMT-6e" x="1276.667969"/>
     <use xlink:href="#Arial-ItalicMT-73" x="1332.283203"/>
    </g>
   </g>
   <g id="text_5">
    <!-- Pedestrian Safety -->
    <g style="fill: #262626" transform="translate(27.490909 337.415625) scale(0.12 -0.12)">
     <defs>
      <path id="Arial-BoldMT-50" d="M 466 0 
L 466 4581 
L 1950 4581 
Q 2794 4581 3050 4513 
Q 3444 4409 3709 4064 
Q 3975 3719 3975 3172 
Q 3975 2750 3822 2462 
Q 3669 2175 3433 2011 
Q 3197 1847 2953 1794 
Q 2622 1728 1994 1728 
L 1391 1728 
L 1391 0 
L 466 0 
z
M 1391 3806 
L 1391 2506 
L 1897 2506 
Q 2444 2506 2628 2578 
Q 2813 2650 2917 2803 
Q 3022 2956 3022 3159 
Q 3022 3409 2875 3571 
Q 2728 3734 2503 3775 
Q 2338 3806 1838 3806 
L 1391 3806 
z
" transform="scale(0.015625)"/>
      <path id="Arial-BoldMT-64" d="M 3503 0 
L 2688 0 
L 2688 488 
Q 2484 203 2207 64 
Q 1931 -75 1650 -75 
Q 1078 -75 670 386 
Q 263 847 263 1672 
Q 263 2516 659 2955 
Q 1056 3394 1663 3394 
Q 2219 3394 2625 2931 
L 2625 4581 
L 3503 4581 
L 3503 0 
z
M 1159 1731 
Q 1159 1200 1306 963 
Q 1519 619 1900 619 
Q 2203 619 2415 876 
Q 2628 1134 2628 1647 
Q 2628 2219 2422 2470 
Q 2216 2722 1894 2722 
Q 1581 2722 1370 2473 
Q 1159 2225 1159 1731 
z
" transform="scale(0.015625)"/>
      <path id="Arial-BoldMT-61" d="M 1116 2306 
L 319 2450 
Q 453 2931 781 3162 
Q 1109 3394 1756 3394 
Q 2344 3394 2631 3255 
Q 2919 3116 3036 2902 
Q 3153 2688 3153 2116 
L 3144 1091 
Q 3144 653 3186 445 
Q 3228 238 3344 0 
L 2475 0 
Q 2441 88 2391 259 
Q 2369 338 2359 363 
Q 2134 144 1878 34 
Q 1622 -75 1331 -75 
Q 819 -75 523 203 
Q 228 481 228 906 
Q 228 1188 362 1408 
Q 497 1628 739 1745 
Q 981 1863 1438 1950 
Q 2053 2066 2291 2166 
L 2291 2253 
Q 2291 2506 2166 2614 
Q 2041 2722 1694 2722 
Q 1459 2722 1328 2630 
Q 1197 2538 1116 2306 
z
M 2291 1594 
Q 2122 1538 1756 1459 
Q 1391 1381 1278 1306 
Q 1106 1184 1106 997 
Q 1106 813 1243 678 
Q 1381 544 1594 544 
Q 1831 544 2047 700 
Q 2206 819 2256 991 
Q 2291 1103 2291 1419 
L 2291 1594 
z
" transform="scale(0.015625)"/>
      <path id="Arial-BoldMT-53" d="M 231 1491 
L 1131 1578 
Q 1213 1125 1461 912 
Q 1709 700 2131 700 
Q 2578 700 2804 889 
Q 3031 1078 3031 1331 
Q 3031 1494 2936 1608 
Q 2841 1722 2603 1806 
Q 2441 1863 1863 2006 
Q 1119 2191 819 2459 
Q 397 2838 397 3381 
Q 397 3731 595 4036 
Q 794 4341 1167 4500 
Q 1541 4659 2069 4659 
Q 2931 4659 3367 4281 
Q 3803 3903 3825 3272 
L 2900 3231 
Q 2841 3584 2645 3739 
Q 2450 3894 2059 3894 
Q 1656 3894 1428 3728 
Q 1281 3622 1281 3444 
Q 1281 3281 1419 3166 
Q 1594 3019 2269 2859 
Q 2944 2700 3267 2529 
Q 3591 2359 3773 2064 
Q 3956 1769 3956 1334 
Q 3956 941 3737 597 
Q 3519 253 3119 86 
Q 2719 -81 2122 -81 
Q 1253 -81 787 320 
Q 322 722 231 1491 
z
" transform="scale(0.015625)"/>
      <path id="Arial-BoldMT-66" d="M 75 3319 
L 563 3319 
L 563 3569 
Q 563 3988 652 4194 
Q 741 4400 980 4529 
Q 1219 4659 1584 4659 
Q 1959 4659 2319 4547 
L 2200 3934 
Q 1991 3984 1797 3984 
Q 1606 3984 1523 3895 
Q 1441 3806 1441 3553 
L 1441 3319 
L 2097 3319 
L 2097 2628 
L 1441 2628 
L 1441 0 
L 563 0 
L 563 2628 
L 75 2628 
L 75 3319 
z
" transform="scale(0.015625)"/>
     </defs>
     <use xlink:href="#Arial-BoldMT-50"/>
     <use xlink:href="#Arial-BoldMT-65" x="66.699219"/>
     <use xlink:href="#Arial-BoldMT-64" x="122.314453"/>
     <use xlink:href="#Arial-BoldMT-65" x="183.398438"/>
     <use xlink:href="#Arial-BoldMT-73" x="239.013672"/>
     <use xlink:href="#Arial-BoldMT-74" x="294.628906"/>
     <use xlink:href="#Arial-BoldMT-72" x="327.929688"/>
     <use xlink:href="#Arial-BoldMT-69" x="366.845703"/>
     <use xlink:href="#Arial-BoldMT-61" x="394.628906"/>
     <use xlink:href="#Arial-BoldMT-6e" x="450.244141"/>
     <use xlink:href="#Arial-BoldMT-20" x="511.328125"/>
     <use xlink:href="#Arial-BoldMT-53" x="539.111328"/>
     <use xlink:href="#Arial-BoldMT-61" x="605.810547"/>
     <use xlink:href="#Arial-BoldMT-66" x="661.425781"/>
     <use xlink:href="#Arial-BoldMT-65" x="694.726562"/>
     <use xlink:href="#Arial-BoldMT-74" x="750.341797"/>
     <use xlink:href="#Arial-BoldMT-79" x="783.642578"/>
    </g>
   </g>
   <g id="text_6">
    <g id="patch_3">
     <path d="M 27.490909 369.409375 
L 328.506534 369.409375 
Q 331.506534 369.409375 331.506534 366.409375 
L 331.506534 356.4 
Q 331.506534 353.4 328.506534 353.4 
L 27.490909 353.4 
Q 24.490909 353.4 24.490909 356.4 
L 24.490909 366.409375 
Q 24.490909 369.409375 27.490909 369.409375 
z
" style="fill: #e8f4fd; stroke: #000000; stroke-width: 0.3; stroke-linejoin: miter"/>
    </g>
    <!-- max(0, 4-people_street) + infrastructure_bonus*0.5 -->
    <g style="fill: #262626" transform="translate(27.490909 364.051562) scale(0.1 -0.1)">
     <defs>
      <path id="DejaVuSansMono-6d" d="M 2113 3144 
Q 2219 3369 2383 3476 
Q 2547 3584 2778 3584 
Q 3200 3584 3373 3257 
Q 3547 2931 3547 2028 
L 3547 0 
L 3022 0 
L 3022 2003 
Q 3022 2744 2939 2923 
Q 2856 3103 2638 3103 
Q 2388 3103 2295 2911 
Q 2203 2719 2203 2003 
L 2203 0 
L 1678 0 
L 1678 2003 
Q 1678 2753 1589 2928 
Q 1500 3103 1269 3103 
Q 1041 3103 952 2911 
Q 863 2719 863 2003 
L 863 0 
L 341 0 
L 341 3500 
L 863 3500 
L 863 3200 
Q 966 3388 1120 3486 
Q 1275 3584 1472 3584 
Q 1709 3584 1867 3475 
Q 2025 3366 2113 3144 
z
" transform="scale(0.015625)"/>
      <path id="DejaVuSansMono-78" d="M 3494 3500 
L 2241 1825 
L 3616 0 
L 2950 0 
L 1925 1403 
L 903 0 
L 238 0 
L 1613 1825 
L 359 3500 
L 997 3500 
L 1925 2234 
L 2847 3500 
L 3494 3500 
z
" transform="scale(0.015625)"/>
      <path id="DejaVuSansMono-28" d="M 2766 4856 
Q 2350 4144 2145 3436 
Q 1941 2728 1941 2009 
Q 1941 1294 2145 584 
Q 2350 -125 2766 -844 
L 2266 -844 
Q 1794 -100 1562 604 
Q 1331 1309 1331 2009 
Q 1331 2706 1562 3412 
Q 1794 4119 2266 4856 
L 2766 4856 
z
" transform="scale(0.015625)"/>
      <path id="DejaVuSansMono-2c" d="M 1569 947 
L 2356 947 
L 2356 300 
L 1741 -897 
L 1259 -897 
L 1569 300 
L 1569 947 
z
" transform="scale(0.015625)"/>
      <path id="DejaVuSansMono-34" d="M 2297 4091 
L 825 1625 
L 2297 1625 
L 2297 4091 
z
M 2194 4666 
L 2925 4666 
L 2925 1625 
L 3547 1625 
L 3547 1113 
L 2925 1113 
L 2925 0 
L 2297 0 
L 2297 1113 
L 319 1113 
L 319 1709 
L 2194 4666 
z
" transform="scale(0.015625)"/>
      <path id="DejaVuSansMono-2d" d="M 1113 2009 
L 2741 2009 
L 2741 1497 
L 1113 1497 
L 1113 2009 
z
" transform="scale(0.015625)"/>
      <path id="DejaVuSansMono-70" d="M 1172 441 
L 1172 -1331 
L 594 -1331 
L 594 3500 
L 1172 3500 
L 1172 3053 
Q 1316 3313 1555 3448 
Q 1794 3584 2106 3584 
Q 2741 3584 3102 3093 
Q 3463 2603 3463 1734 
Q 3463 881 3100 395 
Q 2738 -91 2106 -91 
Q 1788 -91 1548 45 
Q 1309 181 1172 441 
z
M 2859 1747 
Q 2859 2416 2648 2756 
Q 2438 3097 2022 3097 
Q 1603 3097 1387 2755 
Q 1172 2413 1172 1747 
Q 1172 1084 1387 740 
Q 1603 397 2022 397 
Q 2438 397 2648 737 
Q 2859 1078 2859 1747 
z
" transform="scale(0.015625)"/>
      <path id="DejaVuSansMono-29" d="M 1088 4856 
L 1588 4856 
Q 2059 4119 2290 3412 
Q 2522 2706 2522 2009 
Q 2522 1306 2290 600 
Q 2059 -106 1588 -844 
L 1088 -844 
Q 1503 -119 1708 590 
Q 1913 1300 1913 2009 
Q 1913 2722 1708 3431 
Q 1503 4141 1088 4856 
z
" transform="scale(0.015625)"/>
      <path id="DejaVuSansMono-66" d="M 3322 4863 
L 3322 4384 
L 2669 4384 
Q 2359 4384 2239 4257 
Q 2119 4131 2119 3809 
L 2119 3500 
L 3322 3500 
L 3322 3053 
L 2119 3053 
L 2119 0 
L 1544 0 
L 1544 3053 
L 609 3053 
L 609 3500 
L 1544 3500 
L 1544 3744 
Q 1544 4319 1808 4591 
Q 2072 4863 2631 4863 
L 3322 4863 
z
" transform="scale(0.015625)"/>
      <path id="DejaVuSansMono-75" d="M 609 1325 
L 609 3494 
L 1184 3494 
L 1184 1325 
Q 1184 853 1351 631 
Q 1519 409 1869 409 
Q 2275 409 2490 695 
Q 2706 981 2706 1516 
L 2706 3494 
L 3284 3494 
L 3284 0 
L 2706 0 
L 2706 525 
Q 2553 222 2289 65 
Q 2025 -91 1672 -91 
Q 1134 -91 871 261 
Q 609 613 609 1325 
z
" transform="scale(0.015625)"/>
     </defs>
     <use xlink:href="#DejaVuSansMono-6d"/>
     <use xlink:href="#DejaVuSansMono-61" x="60.205078"/>
     <use xlink:href="#DejaVuSansMono-78" x="120.410156"/>
     <use xlink:href="#DejaVuSansMono-28" x="180.615234"/>
     <use xlink:href="#DejaVuSansMono-30" x="240.820312"/>
     <use xlink:href="#DejaVuSansMono-2c" x="301.025391"/>
     <use xlink:href="#DejaVuSansMono-20" x="361.230469"/>
     <use xlink:href="#DejaVuSansMono-34" x="421.435547"/>
     <use xlink:href="#DejaVuSansMono-2d" x="481.640625"/>
     <use xlink:href="#DejaVuSansMono-70" x="541.845703"/>
     <use xlink:href="#DejaVuSansMono-65" x="602.050781"/>
     <use xlink:href="#DejaVuSansMono-6f" x="662.255859"/>
     <use xlink:href="#DejaVuSansMono-70" x="722.460938"/>
     <use xlink:href="#DejaVuSansMono-6c" x="782.666016"/>
     <use xlink:href="#DejaVuSansMono-65" x="842.871094"/>
     <use xlink:href="#DejaVuSansMono-5f" x="903.076172"/>
     <use xlink:href="#DejaVuSansMono-73" x="963.28125"/>
     <use xlink:href="#DejaVuSansMono-74" x="1023.486328"/>
     <use xlink:href="#DejaVuSansMono-72" x="1083.691406"/>
     <use xlink:href="#DejaVuSansMono-65" x="1143.896484"/>
     <use xlink:href="#DejaVuSansMono-65" x="1204.101562"/>
     <use xlink:href="#DejaVuSansMono-74" x="1264.306641"/>
     <use xlink:href="#DejaVuSansMono-29" x="1324.511719"/>
     <use xlink:href="#DejaVuSansMono-20" x="1384.716797"/>
     <use xlink:href="#DejaVuSansMono-2b" x="1444.921875"/>
     <use xlink:href="#DejaVuSansMono-20" x="1505.126953"/>
     <use xlink:href="#DejaVuSansMono-69" x="1565.332031"/>
     <use xlink:href="#DejaVuSansMono-6e" x="1625.537109"/>
     <use xlink:href="#DejaVuSansMono-66" x="1685.742188"/>
     <use xlink:href="#DejaVuSansMono-72" x="1745.947266"/>
     <use xlink:href="#DejaVuSansMono-61" x="1806.152344"/>
     <use xlink:href="#DejaVuSansMono-73" x="1866.357422"/>
     <use xlink:href="#DejaVuSansMono-74" x="1926.5625"/>
     <use xlink:href="#DejaVuSansMono-72" x="1986.767578"/>
     <use xlink:href="#DejaVuSansMono-75" x="2046.972656"/>
     <use xlink:href="#DejaVuSansMono-63" x="2107.177734"/>
     <use xlink:href="#DejaVuSansMono-74" x="2167.382812"/>
     <use xlink:href="#DejaVuSansMono-75" x="2227.587891"/>
     <use xlink:href="#DejaVuSansMono-72" x="2287.792969"/>
     <use xlink:href="#DejaVuSansMono-65" x="2347.998047"/>
     <use xlink:href="#DejaVuSansMono-5f" x="2408.203125"/>
     <use xlink:href="#DejaVuSansMono-62" x="2468.408203"/>
     <use xlink:href="#DejaVuSansMono-6f" x="2528.613281"/>
     <use xlink:href="#DejaVuSansMono-6e" x="2588.818359"/>
     <use xlink:href="#DejaVuSansMono-75" x="2649.023438"/>
     <use xlink:href="#DejaVuSansMono-73" x="2709.228516"/>
     <use xlink:href="#DejaVuSansMono-2a" x="2769.433594"/>
     <use xlink:href="#DejaVuSansMono-30" x="2829.638672"/>
     <use xlink:href="#DejaVuSansMono-2e" x="2889.84375"/>
     <use xlink:href="#DejaVuSansMono-35" x="2950.048828"/>
    </g>
   </g>
   <g id="text_7">
    <!-- Street safety with infrastructure bonus -->
    <g style="fill: #262626" transform="translate(27.490909 390.671719) scale(0.09 -0.09)">
     <defs>
      <path id="Arial-ItalicMT-53" d="M 450 1481 
L 1050 1538 
L 1044 1378 
Q 1044 1113 1166 892 
Q 1288 672 1569 551 
Q 1850 431 2238 431 
Q 2788 431 3077 672 
Q 3366 913 3366 1222 
Q 3366 1438 3213 1616 
Q 3056 1791 2359 2091 
Q 1819 2325 1622 2450 
Q 1313 2653 1166 2892 
Q 1019 3131 1019 3438 
Q 1019 3791 1212 4075 
Q 1406 4359 1779 4509 
Q 2153 4659 2622 4659 
Q 3181 4659 3565 4471 
Q 3950 4284 4123 3971 
Q 4297 3659 4297 3375 
Q 4297 3347 4294 3281 
L 3703 3234 
Q 3703 3428 3669 3538 
Q 3606 3728 3475 3859 
Q 3344 3991 3114 4070 
Q 2884 4150 2600 4150 
Q 2100 4150 1822 3925 
Q 1609 3753 1609 3469 
Q 1609 3300 1696 3167 
Q 1784 3034 2013 2906 
Q 2175 2816 2784 2547 
Q 3278 2328 3466 2203 
Q 3716 2038 3850 1802 
Q 3984 1566 3984 1266 
Q 3984 894 3757 580 
Q 3531 266 3131 94 
Q 2731 -78 2216 -78 
Q 1438 -78 945 261 
Q 453 600 450 1481 
z
" transform="scale(0.015625)"/>
      <path id="Arial-ItalicMT-72" d="M 213 0 
L 906 3319 
L 1406 3319 
L 1266 2641 
Q 1522 3025 1767 3209 
Q 2013 3394 2269 3394 
Q 2438 3394 2684 3272 
L 2453 2747 
Q 2306 2853 2131 2853 
Q 1834 2853 1521 2522 
Q 1209 2191 1031 1331 
L 750 0 
L 213 0 
z
" transform="scale(0.015625)"/>
      <path id="Arial-ItalicMT-61" d="M 2450 413 
Q 2156 159 1884 42 
Q 1613 -75 1303 -75 
Q 844 -75 562 195 
Q 281 466 281 888 
Q 281 1166 407 1380 
Q 534 1594 743 1723 
Q 953 1853 1256 1909 
Q 1447 1947 1980 1969 
Q 2513 1991 2744 2081 
Q 2809 2313 2809 2466 
Q 2809 2663 2666 2775 
Q 2469 2931 2091 2931 
Q 1734 2931 1507 2773 
Q 1281 2616 1178 2325 
L 606 2375 
Q 781 2869 1161 3131 
Q 1541 3394 2119 3394 
Q 2734 3394 3094 3100 
Q 3369 2881 3369 2531 
Q 3369 2266 3291 1916 
L 3106 1091 
Q 3019 697 3019 450 
Q 3019 294 3088 0 
L 2516 0 
Q 2469 163 2450 413 
z
M 2659 1681 
Q 2541 1634 2405 1609 
Q 2269 1584 1950 1556 
Q 1456 1513 1253 1445 
Q 1050 1378 947 1231 
Q 844 1084 844 906 
Q 844 669 1008 516 
Q 1172 363 1475 363 
Q 1756 363 2015 511 
Q 2275 659 2425 925 
Q 2575 1191 2659 1681 
z
" transform="scale(0.015625)"/>
      <path id="Arial-ItalicMT-79" d="M 0 -1281 
L 34 -750 
Q 209 -800 375 -800 
Q 547 -800 653 -722 
Q 791 -619 953 -334 
L 1134 -9 
L 581 3319 
L 1138 3319 
L 1388 1641 
Q 1463 1144 1516 647 
L 3000 3319 
L 3591 3319 
L 1475 -441 
Q 1169 -991 931 -1169 
Q 694 -1347 384 -1347 
Q 188 -1347 0 -1281 
z
" transform="scale(0.015625)"/>
      <path id="Arial-ItalicMT-77" d="M 844 0 
L 497 3319 
L 1041 3319 
L 1191 1828 
L 1250 991 
Q 1256 897 1269 613 
Q 1363 931 1428 1101 
Q 1494 1272 1638 1588 
L 2428 3319 
L 3044 3319 
L 3153 1659 
Q 3178 1281 3184 650 
Q 3341 1069 3694 1813 
L 4406 3319 
L 4972 3319 
L 3350 0 
L 2763 0 
L 2638 1947 
Q 2625 2128 2619 2653 
Q 2491 2319 2316 1931 
L 1438 0 
L 844 0 
z
" transform="scale(0.015625)"/>
      <path id="Arial-ItalicMT-63" d="M 2503 1209 
L 3069 1150 
Q 2856 528 2464 226 
Q 2072 -75 1572 -75 
Q 1031 -75 695 275 
Q 359 625 359 1253 
Q 359 1797 575 2322 
Q 791 2847 1192 3120 
Q 1594 3394 2109 3394 
Q 2644 3394 2956 3092 
Q 3269 2791 3269 2294 
L 2713 2256 
Q 2709 2572 2529 2750 
Q 2350 2928 2056 2928 
Q 1716 2928 1466 2712 
Q 1216 2497 1073 2058 
Q 931 1619 931 1213 
Q 931 788 1118 575 
Q 1306 363 1581 363 
Q 1856 363 2107 572 
Q 2359 781 2503 1209 
z
" transform="scale(0.015625)"/>
     </defs>
     <use xlink:href="#Arial-ItalicMT-53"/>
     <use xlink:href="#Arial-ItalicMT-74" x="66.699219"/>
     <use xlink:href="#Arial-ItalicMT-72" x="94.482422"/>
     <use xlink:href="#Arial-ItalicMT-65" x="127.783203"/>
     <use xlink:href="#Arial-ItalicMT-65" x="183.398438"/>
     <use xlink:href="#Arial-ItalicMT-74" x="239.013672"/>
     <use xlink:href="#Arial-ItalicMT-20" x="266.796875"/>
     <use xlink:href="#Arial-ItalicMT-73" x="294.580078"/>
     <use xlink:href="#Arial-ItalicMT-61" x="344.580078"/>
     <use xlink:href="#Arial-ItalicMT-66" x="400.195312"/>
     <use xlink:href="#Arial-ItalicMT-65" x="427.978516"/>
     <use xlink:href="#Arial-ItalicMT-74" x="483.59375"/>
     <use xlink:href="#Arial-ItalicMT-79" x="511.376953"/>
     <use xlink:href="#Arial-ItalicMT-20" x="561.376953"/>
     <use xlink:href="#Arial-ItalicMT-77" x="589.160156"/>
     <use xlink:href="#Arial-ItalicMT-69" x="661.376953"/>
     <use xlink:href="#Arial-ItalicMT-74" x="683.59375"/>
     <use xlink:href="#Arial-ItalicMT-68" x="711.376953"/>
     <use xlink:href="#Arial-ItalicMT-20" x="766.992188"/>
     <use xlink:href="#Arial-ItalicMT-69" x="794.775391"/>
     <use xlink:href="#Arial-ItalicMT-6e" x="816.992188"/>
     <use xlink:href="#Arial-ItalicMT-66" x="872.607422"/>
     <use xlink:href="#Arial-ItalicMT-72" x="900.390625"/>
     <use xlink:href="#Arial-ItalicMT-61" x="933.691406"/>
     <use xlink:href="#Arial-ItalicMT-73" x="989.306641"/>
     <use xlink:href="#Arial-ItalicMT-74" x="1039.306641"/>
     <use xlink:href="#Arial-ItalicMT-72" x="1067.089844"/>
     <use xlink:href="#Arial-ItalicMT-75" x="1100.390625"/>
     <use xlink:href="#Arial-ItalicMT-63" x="1156.005859"/>
     <use xlink:href="#Arial-ItalicMT-74" x="1206.005859"/>
     <use xlink:href="#Arial-ItalicMT-75" x="1233.789062"/>
     <use xlink:href="#Arial-ItalicMT-72" x="1289.404297"/>
     <use xlink:href="#Arial-ItalicMT-65" x="1322.705078"/>
     <use xlink:href="#Arial-ItalicMT-20" x="1378.320312"/>
     <use xlink:href="#Arial-ItalicMT-62" x="1406.103516"/>
     <use xlink:href="#Arial-ItalicMT-6f" x="1461.71875"/>
     <use xlink:href="#Arial-ItalicMT-6e" x="1517.333984"/>
     <use xlink:href="#Arial-ItalicMT-75" x="1572.949219"/>
     <use xlink:href="#Arial-ItalicMT-73" x="1628.564453"/>
    </g>
   </g>
   <g id="text_8">
    <!-- Traffic Pressure -->
    <g style="fill: #262626" transform="translate(27.490909 475.869375) scale(0.12 -0.12)">
     <defs>
      <path id="Arial-BoldMT-54" d="M 1497 0 
L 1497 3806 
L 138 3806 
L 138 4581 
L 3778 4581 
L 3778 3806 
L 2422 3806 
L 2422 0 
L 1497 0 
z
" transform="scale(0.015625)"/>
      <path id="Arial-BoldMT-75" d="M 2644 0 
L 2644 497 
Q 2463 231 2167 78 
Q 1872 -75 1544 -75 
Q 1209 -75 943 72 
Q 678 219 559 484 
Q 441 750 441 1219 
L 441 3319 
L 1319 3319 
L 1319 1794 
Q 1319 1094 1367 936 
Q 1416 778 1544 686 
Q 1672 594 1869 594 
Q 2094 594 2272 717 
Q 2450 841 2515 1023 
Q 2581 1206 2581 1919 
L 2581 3319 
L 3459 3319 
L 3459 0 
L 2644 0 
z
" transform="scale(0.015625)"/>
     </defs>
     <use xlink:href="#Arial-BoldMT-54"/>
     <use xlink:href="#Arial-BoldMT-72" x="55.583984"/>
     <use xlink:href="#Arial-BoldMT-61" x="94.5"/>
     <use xlink:href="#Arial-BoldMT-66" x="150.115234"/>
     <use xlink:href="#Arial-BoldMT-66" x="183.416016"/>
     <use xlink:href="#Arial-BoldMT-69" x="216.716797"/>
     <use xlink:href="#Arial-BoldMT-63" x="244.5"/>
     <use xlink:href="#Arial-BoldMT-20" x="300.115234"/>
     <use xlink:href="#Arial-BoldMT-50" x="327.898438"/>
     <use xlink:href="#Arial-BoldMT-72" x="394.597656"/>
     <use xlink:href="#Arial-BoldMT-65" x="433.513672"/>
     <use xlink:href="#Arial-BoldMT-73" x="489.128906"/>
     <use xlink:href="#Arial-BoldMT-73" x="544.744141"/>
     <use xlink:href="#Arial-BoldMT-75" x="600.359375"/>
     <use xlink:href="#Arial-BoldMT-72" x="661.443359"/>
     <use xlink:href="#Arial-BoldMT-65" x="700.359375"/>
    </g>
   </g>
   <g id="text_9">
    <g id="patch_4">
     <path d="M 27.490909 508.009375 
L 424.831534 508.009375 
Q 427.831534 508.009375 427.831534 505.009375 
L 427.831534 495 
Q 427.831534 492 424.831534 492 
L 27.490909 492 
Q 24.490909 492 24.490909 495 
L 24.490909 505.009375 
Q 24.490909 508.009375 27.490909 508.009375 
z
" style="fill: #e8f4fd; stroke: #000000; stroke-width: 0.3; stroke-linejoin: miter"/>
    </g>
    <!-- vehicles_moving*0.8 + vehicles_stopped*1.2 + vehicles_blocking*2.0 -->
    <g style="fill: #262626" transform="translate(27.490909 502.651562) scale(0.1 -0.1)">
     <defs>
      <path id="DejaVuSansMono-76" d="M 313 3500 
L 909 3500 
L 1925 563 
L 2944 3500 
L 3541 3500 
L 2297 0 
L 1556 0 
L 313 3500 
z
" transform="scale(0.015625)"/>
      <path id="DejaVuSansMono-68" d="M 3284 2169 
L 3284 0 
L 2706 0 
L 2706 2169 
Q 2706 2641 2540 2862 
Q 2375 3084 2022 3084 
Q 1619 3084 1401 2798 
Q 1184 2513 1184 1978 
L 1184 0 
L 609 0 
L 609 4863 
L 1184 4863 
L 1184 2975 
Q 1338 3275 1600 3429 
Q 1863 3584 2222 3584 
Q 2756 3584 3020 3232 
Q 3284 2881 3284 2169 
z
" transform="scale(0.015625)"/>
      <path id="DejaVuSansMono-67" d="M 2681 1778 
Q 2681 2425 2470 2761 
Q 2259 3097 1856 3097 
Q 1434 3097 1212 2761 
Q 991 2425 991 1778 
Q 991 1131 1214 792 
Q 1438 453 1863 453 
Q 2259 453 2470 793 
Q 2681 1134 2681 1778 
z
M 3256 225 
Q 3256 -563 2884 -969 
Q 2513 -1375 1791 -1375 
Q 1553 -1375 1293 -1331 
Q 1034 -1288 775 -1203 
L 775 -634 
Q 1081 -778 1331 -847 
Q 1581 -916 1791 -916 
Q 2256 -916 2468 -662 
Q 2681 -409 2681 141 
L 2681 166 
L 2681 556 
Q 2544 263 2306 119 
Q 2069 -25 1728 -25 
Q 1116 -25 750 465 
Q 384 956 384 1778 
Q 384 2603 750 3093 
Q 1116 3584 1728 3584 
Q 2066 3584 2300 3450 
Q 2534 3316 2681 3034 
L 2681 3488 
L 3256 3488 
L 3256 225 
z
" transform="scale(0.015625)"/>
      <path id="DejaVuSansMono-64" d="M 2681 3053 
L 2681 4863 
L 3256 4863 
L 3256 0 
L 2681 0 
L 2681 441 
Q 2538 181 2298 45 
Q 2059 -91 1747 -91 
Q 1113 -91 748 401 
Q 384 894 384 1759 
Q 384 2613 750 3098 
Q 1116 3584 1747 3584 
Q 2063 3584 2303 3448 
Q 2544 3313 2681 3053 
z
M 991 1747 
Q 991 1078 1203 737 
Q 1416 397 1831 397 
Q 2247 397 2464 740 
Q 2681 1084 2681 1747 
Q 2681 2413 2464 2755 
Q 2247 3097 1831 3097 
Q 1416 3097 1203 2756 
Q 991 2416 991 1747 
z
" transform="scale(0.015625)"/>
     </defs>
     <use xlink:href="#DejaVuSansMono-76"/>
     <use xlink:href="#DejaVuSansMono-65" x="60.205078"/>
     <use xlink:href="#DejaVuSansMono-68" x="120.410156"/>
     <use xlink:href="#DejaVuSansMono-69" x="180.615234"/>
     <use xlink:href="#DejaVuSansMono-63" x="240.820312"/>
     <use xlink:href="#DejaVuSansMono-6c" x="301.025391"/>
     <use xlink:href="#DejaVuSansMono-65" x="361.230469"/>
     <use xlink:href="#DejaVuSansMono-73" x="421.435547"/>
     <use xlink:href="#DejaVuSansMono-5f" x="481.640625"/>
     <use xlink:href="#DejaVuSansMono-6d" x="541.845703"/>
     <use xlink:href="#DejaVuSansMono-6f" x="602.050781"/>
     <use xlink:href="#DejaVuSansMono-76" x="662.255859"/>
     <use xlink:href="#DejaVuSansMono-69" x="722.460938"/>
     <use xlink:href="#DejaVuSansMono-6e" x="782.666016"/>
     <use xlink:href="#DejaVuSansMono-67" x="842.871094"/>
     <use xlink:href="#DejaVuSansMono-2a" x="903.076172"/>
     <use xlink:href="#DejaVuSansMono-30" x="963.28125"/>
     <use xlink:href="#DejaVuSansMono-2e" x="1023.486328"/>
     <use xlink:href="#DejaVuSansMono-38" x="1083.691406"/>
     <use xlink:href="#DejaVuSansMono-20" x="1143.896484"/>
     <use xlink:href="#DejaVuSansMono-2b" x="1204.101562"/>
     <use xlink:href="#DejaVuSansMono-20" x="1264.306641"/>
     <use xlink:href="#DejaVuSansMono-76" x="1324.511719"/>
     <use xlink:href="#DejaVuSansMono-65" x="1384.716797"/>
     <use xlink:href="#DejaVuSansMono-68" x="1444.921875"/>
     <use xlink:href="#DejaVuSansMono-69" x="1505.126953"/>
     <use xlink:href="#DejaVuSansMono-63" x="1565.332031"/>
     <use xlink:href="#DejaVuSansMono-6c" x="1625.537109"/>
     <use xlink:href="#DejaVuSansMono-65" x="1685.742188"/>
     <use xlink:href="#DejaVuSansMono-73" x="1745.947266"/>
     <use xlink:href="#DejaVuSansMono-5f" x="1806.152344"/>
     <use xlink:href="#DejaVuSansMono-73" x="1866.357422"/>
     <use xlink:href="#DejaVuSansMono-74" x="1926.5625"/>
     <use xlink:href="#DejaVuSansMono-6f" x="1986.767578"/>
     <use xlink:href="#DejaVuSansMono-70" x="2046.972656"/>
     <use xlink:href="#DejaVuSansMono-70" x="2107.177734"/>
     <use xlink:href="#DejaVuSansMono-65" x="2167.382812"/>
     <use xlink:href="#DejaVuSansMono-64" x="2227.587891"/>
     <use xlink:href="#DejaVuSansMono-2a" x="2287.792969"/>
     <use xlink:href="#DejaVuSansMono-31" x="2347.998047"/>
     <use xlink:href="#DejaVuSansMono-2e" x="2408.203125"/>
     <use xlink:href="#DejaVuSansMono-32" x="2468.408203"/>
     <use xlink:href="#DejaVuSansMono-20" x="2528.613281"/>
     <use xlink:href="#DejaVuSansMono-2b" x="2588.818359"/>
     <use xlink:href="#DejaVuSansMono-20" x="2649.023438"/>
     <use xlink:href="#DejaVuSansMono-76" x="2709.228516"/>
     <use xlink:href="#DejaVuSansMono-65" x="2769.433594"/>
     <use xlink:href="#DejaVuSansMono-68" x="2829.638672"/>
     <use xlink:href="#DejaVuSansMono-69" x="2889.84375"/>
     <use xlink:href="#DejaVuSansMono-63" x="2950.048828"/>
     <use xlink:href="#DejaVuSansMono-6c" x="3010.253906"/>
     <use xlink:href="#DejaVuSansMono-65" x="3070.458984"/>
     <use xlink:href="#DejaVuSansMono-73" x="3130.664062"/>
     <use xlink:href="#DejaVuSansMono-5f" x="3190.869141"/>
     <use xlink:href="#DejaVuSansMono-62" x="3251.074219"/>
     <use xlink:href="#DejaVuSansMono-6c" x="3311.279297"/>
     <use xlink:href="#DejaVuSansMono-6f" x="3371.484375"/>
     <use xlink:href="#DejaVuSansMono-63" x="3431.689453"/>
     <use xlink:href="#DejaVuSansMono-6b" x="3491.894531"/>
     <use xlink:href="#DejaVuSansMono-69" x="3552.099609"/>
     <use xlink:href="#DejaVuSansMono-6e" x="3612.304688"/>
     <use xlink:href="#DejaVuSansMono-67" x="3672.509766"/>
     <use xlink:href="#DejaVuSansMono-2a" x="3732.714844"/>
     <use xlink:href="#DejaVuSansMono-32" x="3792.919922"/>
     <use xlink:href="#DejaVuSansMono-2e" x="3853.125"/>
     <use xlink:href="#DejaVuSansMono-30" x="3913.330078"/>
    </g>
   </g>
   <g id="text_10">
    <!-- Weighted vehicle congestion -->
    <g style="fill: #262626" transform="translate(27.490909 529.162031) scale(0.09 -0.09)">
     <defs>
      <path id="Arial-ItalicMT-76" d="M 1050 0 
L 506 3319 
L 1056 3319 
L 1341 1491 
Q 1388 1191 1456 513 
Q 1619 866 1872 1322 
L 2981 3319 
L 3578 3319 
L 1678 0 
L 1050 0 
z
" transform="scale(0.015625)"/>
      <path id="Arial-ItalicMT-6c" d="M 169 0 
L 1125 4581 
L 1691 4581 
L 734 0 
L 169 0 
z
" transform="scale(0.015625)"/>
     </defs>
     <use xlink:href="#Arial-ItalicMT-57"/>
     <use xlink:href="#Arial-ItalicMT-65" x="92.634766"/>
     <use xlink:href="#Arial-ItalicMT-69" x="148.25"/>
     <use xlink:href="#Arial-ItalicMT-67" x="170.466797"/>
     <use xlink:href="#Arial-ItalicMT-68" x="226.082031"/>
     <use xlink:href="#Arial-ItalicMT-74" x="281.697266"/>
     <use xlink:href="#Arial-ItalicMT-65" x="309.480469"/>
     <use xlink:href="#Arial-ItalicMT-64" x="365.095703"/>
     <use xlink:href="#Arial-ItalicMT-20" x="420.710938"/>
     <use xlink:href="#Arial-ItalicMT-76" x="448.494141"/>
     <use xlink:href="#Arial-ItalicMT-65" x="498.494141"/>
     <use xlink:href="#Arial-ItalicMT-68" x="554.109375"/>
     <use xlink:href="#Arial-ItalicMT-69" x="609.724609"/>
     <use xlink:href="#Arial-ItalicMT-63" x="631.941406"/>
     <use xlink:href="#Arial-ItalicMT-6c" x="681.941406"/>
     <use xlink:href="#Arial-ItalicMT-65" x="704.158203"/>
     <use xlink:href="#Arial-ItalicMT-20" x="759.773438"/>
     <use xlink:href="#Arial-ItalicMT-63" x="787.556641"/>
     <use xlink:href="#Arial-ItalicMT-6f" x="837.556641"/>
     <use xlink:href="#Arial-ItalicMT-6e" x="893.171875"/>
     <use xlink:href="#Arial-ItalicMT-67" x="948.787109"/>
     <use xlink:href="#Arial-ItalicMT-65" x="1004.402344"/>
     <use xlink:href="#Arial-ItalicMT-73" x="1060.017578"/>
     <use xlink:href="#Arial-ItalicMT-74" x="1110.017578"/>
     <use xlink:href="#Arial-ItalicMT-69" x="1137.800781"/>
     <use xlink:href="#Arial-ItalicMT-6f" x="1160.017578"/>
     <use xlink:href="#Arial-ItalicMT-6e" x="1215.632812"/>
    </g>
   </g>
  </g>
  <g id="axes_2">
   <g id="text_11">
    <!-- Multi-Variable Conditions -->
    <g style="fill: #262626" transform="translate(601.092159 146.0925) scale(0.16 -0.16)">
     <defs>
      <path id="Arial-BoldMT-2d" d="M 359 1222 
L 359 2100 
L 2084 2100 
L 2084 1222 
L 359 1222 
z
" transform="scale(0.015625)"/>
      <path id="Arial-BoldMT-56" d="M 1634 0 
L -3 4581 
L 1000 4581 
L 2159 1191 
L 3281 4581 
L 4263 4581 
L 2622 0 
L 1634 0 
z
" transform="scale(0.015625)"/>
      <path id="Arial-BoldMT-62" d="M 422 0 
L 422 4581 
L 1300 4581 
L 1300 2931 
Q 1706 3394 2263 3394 
Q 2869 3394 3266 2955 
Q 3663 2516 3663 1694 
Q 3663 844 3258 384 
Q 2853 -75 2275 -75 
Q 1991 -75 1714 67 
Q 1438 209 1238 488 
L 1238 0 
L 422 0 
z
M 1294 1731 
Q 1294 1216 1456 969 
Q 1684 619 2063 619 
Q 2353 619 2558 867 
Q 2763 1116 2763 1650 
Q 2763 2219 2556 2470 
Q 2350 2722 2028 2722 
Q 1713 2722 1503 2476 
Q 1294 2231 1294 1731 
z
" transform="scale(0.015625)"/>
     </defs>
     <use xlink:href="#Arial-BoldMT-4d"/>
     <use xlink:href="#Arial-BoldMT-75" x="83.300781"/>
     <use xlink:href="#Arial-BoldMT-6c" x="144.384766"/>
     <use xlink:href="#Arial-BoldMT-74" x="172.167969"/>
     <use xlink:href="#Arial-BoldMT-69" x="205.46875"/>
     <use xlink:href="#Arial-BoldMT-2d" x="233.251953"/>
     <use xlink:href="#Arial-BoldMT-56" x="266.552734"/>
     <use xlink:href="#Arial-BoldMT-61" x="327.751953"/>
     <use xlink:href="#Arial-BoldMT-72" x="383.367188"/>
     <use xlink:href="#Arial-BoldMT-69" x="422.283203"/>
     <use xlink:href="#Arial-BoldMT-61" x="450.066406"/>
     <use xlink:href="#Arial-BoldMT-62" x="505.681641"/>
     <use xlink:href="#Arial-BoldMT-6c" x="566.765625"/>
     <use xlink:href="#Arial-BoldMT-65" x="594.548828"/>
     <use xlink:href="#Arial-BoldMT-20" x="650.164062"/>
     <use xlink:href="#Arial-BoldMT-43" x="677.947266"/>
     <use xlink:href="#Arial-BoldMT-6f" x="750.164062"/>
     <use xlink:href="#Arial-BoldMT-6e" x="811.248047"/>
     <use xlink:href="#Arial-BoldMT-64" x="872.332031"/>
     <use xlink:href="#Arial-BoldMT-69" x="933.416016"/>
     <use xlink:href="#Arial-BoldMT-74" x="961.199219"/>
     <use xlink:href="#Arial-BoldMT-69" x="994.5"/>
     <use xlink:href="#Arial-BoldMT-6f" x="1022.283203"/>
     <use xlink:href="#Arial-BoldMT-6e" x="1083.367188"/>
     <use xlink:href="#Arial-BoldMT-73" x="1144.451172"/>
    </g>
   </g>
   <g id="text_12">
    <!-- Bike Conflict Zones -->
    <g style="fill: #262626" transform="translate(514.472727 198.669375) scale(0.12 -0.12)">
     <defs>
      <path id="Arial-BoldMT-42" d="M 469 4581 
L 2300 4581 
Q 2844 4581 3111 4536 
Q 3378 4491 3589 4347 
Q 3800 4203 3940 3964 
Q 4081 3725 4081 3428 
Q 4081 3106 3907 2837 
Q 3734 2569 3438 2434 
Q 3856 2313 4081 2019 
Q 4306 1725 4306 1328 
Q 4306 1016 4161 720 
Q 4016 425 3764 248 
Q 3513 72 3144 31 
Q 2913 6 2028 0 
L 469 0 
L 469 4581 
z
M 1394 3819 
L 1394 2759 
L 2000 2759 
Q 2541 2759 2672 2775 
Q 2909 2803 3045 2939 
Q 3181 3075 3181 3297 
Q 3181 3509 3064 3642 
Q 2947 3775 2716 3803 
Q 2578 3819 1925 3819 
L 1394 3819 
z
M 1394 1997 
L 1394 772 
L 2250 772 
Q 2750 772 2884 800 
Q 3091 838 3220 983 
Q 3350 1128 3350 1372 
Q 3350 1578 3250 1722 
Q 3150 1866 2961 1931 
Q 2772 1997 2141 1997 
L 1394 1997 
z
" transform="scale(0.015625)"/>
      <path id="Arial-BoldMT-6b" d="M 428 0 
L 428 4581 
L 1306 4581 
L 1306 2150 
L 2334 3319 
L 3416 3319 
L 2281 2106 
L 3497 0 
L 2550 0 
L 1716 1491 
L 1306 1063 
L 1306 0 
L 428 0 
z
" transform="scale(0.015625)"/>
      <path id="Arial-BoldMT-5a" d="M 69 0 
L 69 834 
L 2475 3806 
L 341 3806 
L 341 4581 
L 3694 4581 
L 3694 3863 
L 1184 772 
L 3791 772 
L 3791 0 
L 69 0 
z
" transform="scale(0.015625)"/>
     </defs>
     <use xlink:href="#Arial-BoldMT-42"/>
     <use xlink:href="#Arial-BoldMT-69" x="72.216797"/>
     <use xlink:href="#Arial-BoldMT-6b" x="100"/>
     <use xlink:href="#Arial-BoldMT-65" x="155.615234"/>
     <use xlink:href="#Arial-BoldMT-20" x="211.230469"/>
     <use xlink:href="#Arial-BoldMT-43" x="239.013672"/>
     <use xlink:href="#Arial-BoldMT-6f" x="311.230469"/>
     <use xlink:href="#Arial-BoldMT-6e" x="372.314453"/>
     <use xlink:href="#Arial-BoldMT-66" x="433.398438"/>
     <use xlink:href="#Arial-BoldMT-6c" x="466.699219"/>
     <use xlink:href="#Arial-BoldMT-69" x="494.482422"/>
     <use xlink:href="#Arial-BoldMT-63" x="522.265625"/>
     <use xlink:href="#Arial-BoldMT-74" x="577.880859"/>
     <use xlink:href="#Arial-BoldMT-20" x="611.181641"/>
     <use xlink:href="#Arial-BoldMT-5a" x="638.964844"/>
     <use xlink:href="#Arial-BoldMT-6f" x="700.048828"/>
     <use xlink:href="#Arial-BoldMT-6e" x="761.132812"/>
     <use xlink:href="#Arial-BoldMT-65" x="822.216797"/>
     <use xlink:href="#Arial-BoldMT-73" x="877.832031"/>
    </g>
   </g>
   <g id="text_13">
    <g id="patch_5">
     <path d="M 514.472727 230.809375 
L 743.244602 230.809375 
Q 746.244602 230.809375 746.244602 227.809375 
L 746.244602 217.8 
Q 746.244602 214.8 743.244602 214.8 
L 514.472727 214.8 
Q 511.472727 214.8 511.472727 217.8 
L 511.472727 227.809375 
Q 511.472727 230.809375 514.472727 230.809375 
z
" style="fill: #fff2e8; stroke: #000000; stroke-width: 0.3; stroke-linejoin: miter"/>
    </g>
    <!-- min(bikes_street, vehicles_moving) * 2 -->
    <g style="fill: #262626" transform="translate(514.472727 225.451563) scale(0.1 -0.1)">
     <use xlink:href="#DejaVuSansMono-6d"/>
     <use xlink:href="#DejaVuSansMono-69" x="60.205078"/>
     <use xlink:href="#DejaVuSansMono-6e" x="120.410156"/>
     <use xlink:href="#DejaVuSansMono-28" x="180.615234"/>
     <use xlink:href="#DejaVuSansMono-62" x="240.820312"/>
     <use xlink:href="#DejaVuSansMono-69" x="301.025391"/>
     <use xlink:href="#DejaVuSansMono-6b" x="361.230469"/>
     <use xlink:href="#DejaVuSansMono-65" x="421.435547"/>
     <use xlink:href="#DejaVuSansMono-73" x="481.640625"/>
     <use xlink:href="#DejaVuSansMono-5f" x="541.845703"/>
     <use xlink:href="#DejaVuSansMono-73" x="602.050781"/>
     <use xlink:href="#DejaVuSansMono-74" x="662.255859"/>
     <use xlink:href="#DejaVuSansMono-72" x="722.460938"/>
     <use xlink:href="#DejaVuSansMono-65" x="782.666016"/>
     <use xlink:href="#DejaVuSansMono-65" x="842.871094"/>
     <use xlink:href="#DejaVuSansMono-74" x="903.076172"/>
     <use xlink:href="#DejaVuSansMono-2c" x="963.28125"/>
     <use xlink:href="#DejaVuSansMono-20" x="1023.486328"/>
     <use xlink:href="#DejaVuSansMono-76" x="1083.691406"/>
     <use xlink:href="#DejaVuSansMono-65" x="1143.896484"/>
     <use xlink:href="#DejaVuSansMono-68" x="1204.101562"/>
     <use xlink:href="#DejaVuSansMono-69" x="1264.306641"/>
     <use xlink:href="#DejaVuSansMono-63" x="1324.511719"/>
     <use xlink:href="#DejaVuSansMono-6c" x="1384.716797"/>
     <use xlink:href="#DejaVuSansMono-65" x="1444.921875"/>
     <use xlink:href="#DejaVuSansMono-73" x="1505.126953"/>
     <use xlink:href="#DejaVuSansMono-5f" x="1565.332031"/>
     <use xlink:href="#DejaVuSansMono-6d" x="1625.537109"/>
     <use xlink:href="#DejaVuSansMono-6f" x="1685.742188"/>
     <use xlink:href="#DejaVuSansMono-76" x="1745.947266"/>
     <use xlink:href="#DejaVuSansMono-69" x="1806.152344"/>
     <use xlink:href="#DejaVuSansMono-6e" x="1866.357422"/>
     <use xlink:href="#DejaVuSansMono-67" x="1926.5625"/>
     <use xlink:href="#DejaVuSansMono-29" x="1986.767578"/>
     <use xlink:href="#DejaVuSansMono-20" x="2046.972656"/>
     <use xlink:href="#DejaVuSansMono-2a" x="2107.177734"/>
     <use xlink:href="#DejaVuSansMono-20" x="2167.382812"/>
     <use xlink:href="#DejaVuSansMono-32" x="2227.587891"/>
    </g>
   </g>
   <g id="text_14">
    <!-- Intersection of bikes and traffic -->
    <g style="fill: #262626" transform="translate(514.472727 251.962031) scale(0.09 -0.09)">
     <defs>
      <path id="Arial-ItalicMT-49" d="M 366 0 
L 1325 4581 
L 1934 4581 
L 978 0 
L 366 0 
z
" transform="scale(0.015625)"/>
     </defs>
     <use xlink:href="#Arial-ItalicMT-49"/>
     <use xlink:href="#Arial-ItalicMT-6e" x="27.783203"/>
     <use xlink:href="#Arial-ItalicMT-74" x="83.398438"/>
     <use xlink:href="#Arial-ItalicMT-65" x="111.181641"/>
     <use xlink:href="#Arial-ItalicMT-72" x="166.796875"/>
     <use xlink:href="#Arial-ItalicMT-73" x="200.097656"/>
     <use xlink:href="#Arial-ItalicMT-65" x="250.097656"/>
     <use xlink:href="#Arial-ItalicMT-63" x="305.712891"/>
     <use xlink:href="#Arial-ItalicMT-74" x="355.712891"/>
     <use xlink:href="#Arial-ItalicMT-69" x="383.496094"/>
     <use xlink:href="#Arial-ItalicMT-6f" x="405.712891"/>
     <use xlink:href="#Arial-ItalicMT-6e" x="461.328125"/>
     <use xlink:href="#Arial-ItalicMT-20" x="516.943359"/>
     <use xlink:href="#Arial-ItalicMT-6f" x="544.726562"/>
     <use xlink:href="#Arial-ItalicMT-66" x="600.341797"/>
     <use xlink:href="#Arial-ItalicMT-20" x="628.125"/>
     <use xlink:href="#Arial-ItalicMT-62" x="655.908203"/>
     <use xlink:href="#Arial-ItalicMT-69" x="711.523438"/>
     <use xlink:href="#Arial-ItalicMT-6b" x="733.740234"/>
     <use xlink:href="#Arial-ItalicMT-65" x="783.740234"/>
     <use xlink:href="#Arial-ItalicMT-73" x="839.355469"/>
     <use xlink:href="#Arial-ItalicMT-20" x="889.355469"/>
     <use xlink:href="#Arial-ItalicMT-61" x="917.138672"/>
     <use xlink:href="#Arial-ItalicMT-6e" x="972.753906"/>
     <use xlink:href="#Arial-ItalicMT-64" x="1028.369141"/>
     <use xlink:href="#Arial-ItalicMT-20" x="1083.984375"/>
     <use xlink:href="#Arial-ItalicMT-74" x="1111.767578"/>
     <use xlink:href="#Arial-ItalicMT-72" x="1139.550781"/>
     <use xlink:href="#Arial-ItalicMT-61" x="1172.851562"/>
     <use xlink:href="#Arial-ItalicMT-66" x="1228.466797"/>
     <use xlink:href="#Arial-ItalicMT-66" x="1256.25"/>
     <use xlink:href="#Arial-ItalicMT-69" x="1284.033203"/>
     <use xlink:href="#Arial-ItalicMT-63" x="1306.25"/>
    </g>
   </g>
   <g id="text_15">
    <!-- Pedestrian Exposure -->
    <g style="fill: #262626" transform="translate(514.472727 337.269375) scale(0.12 -0.12)">
     <defs>
      <path id="Arial-BoldMT-45" d="M 466 0 
L 466 4581 
L 3863 4581 
L 3863 3806 
L 1391 3806 
L 1391 2791 
L 3691 2791 
L 3691 2019 
L 1391 2019 
L 1391 772 
L 3950 772 
L 3950 0 
L 466 0 
z
" transform="scale(0.015625)"/>
      <path id="Arial-BoldMT-78" d="M 38 0 
L 1234 1709 
L 88 3319 
L 1159 3319 
L 1747 2406 
L 2366 3319 
L 3397 3319 
L 2272 1747 
L 3500 0 
L 2422 0 
L 1747 1028 
L 1066 0 
L 38 0 
z
" transform="scale(0.015625)"/>
      <path id="Arial-BoldMT-70" d="M 434 3319 
L 1253 3319 
L 1253 2831 
Q 1413 3081 1684 3237 
Q 1956 3394 2288 3394 
Q 2866 3394 3269 2941 
Q 3672 2488 3672 1678 
Q 3672 847 3265 386 
Q 2859 -75 2281 -75 
Q 2006 -75 1782 34 
Q 1559 144 1313 409 
L 1313 -1263 
L 434 -1263 
L 434 3319 
z
M 1303 1716 
Q 1303 1156 1525 889 
Q 1747 622 2066 622 
Q 2372 622 2575 867 
Q 2778 1113 2778 1672 
Q 2778 2194 2568 2447 
Q 2359 2700 2050 2700 
Q 1728 2700 1515 2451 
Q 1303 2203 1303 1716 
z
" transform="scale(0.015625)"/>
     </defs>
     <use xlink:href="#Arial-BoldMT-50"/>
     <use xlink:href="#Arial-BoldMT-65" x="66.699219"/>
     <use xlink:href="#Arial-BoldMT-64" x="122.314453"/>
     <use xlink:href="#Arial-BoldMT-65" x="183.398438"/>
     <use xlink:href="#Arial-BoldMT-73" x="239.013672"/>
     <use xlink:href="#Arial-BoldMT-74" x="294.628906"/>
     <use xlink:href="#Arial-BoldMT-72" x="327.929688"/>
     <use xlink:href="#Arial-BoldMT-69" x="366.845703"/>
     <use xlink:href="#Arial-BoldMT-61" x="394.628906"/>
     <use xlink:href="#Arial-BoldMT-6e" x="450.244141"/>
     <use xlink:href="#Arial-BoldMT-20" x="511.328125"/>
     <use xlink:href="#Arial-BoldMT-45" x="539.111328"/>
     <use xlink:href="#Arial-BoldMT-78" x="605.810547"/>
     <use xlink:href="#Arial-BoldMT-70" x="661.425781"/>
     <use xlink:href="#Arial-BoldMT-6f" x="722.509766"/>
     <use xlink:href="#Arial-BoldMT-73" x="783.59375"/>
     <use xlink:href="#Arial-BoldMT-75" x="839.208984"/>
     <use xlink:href="#Arial-BoldMT-72" x="900.292969"/>
     <use xlink:href="#Arial-BoldMT-65" x="939.208984"/>
    </g>
   </g>
   <g id="text_16">
    <g id="patch_6">
     <path d="M 514.472727 369.409375 
L 833.54929 369.409375 
Q 836.54929 369.409375 836.54929 366.409375 
L 836.54929 356.4 
Q 836.54929 353.4 833.54929 353.4 
L 514.472727 353.4 
Q 511.472727 353.4 511.472727 356.4 
L 511.472727 366.409375 
Q 511.472727 369.409375 514.472727 369.409375 
z
" style="fill: #fff2e8; stroke: #000000; stroke-width: 0.3; stroke-linejoin: miter"/>
    </g>
    <!-- people_street*2.0 + people_crosswalk*vehicles_turning -->
    <g style="fill: #262626" transform="translate(514.472727 364.051562) scale(0.1 -0.1)">
     <use xlink:href="#DejaVuSansMono-70"/>
     <use xlink:href="#DejaVuSansMono-65" x="60.205078"/>
     <use xlink:href="#DejaVuSansMono-6f" x="120.410156"/>
     <use xlink:href="#DejaVuSansMono-70" x="180.615234"/>
     <use xlink:href="#DejaVuSansMono-6c" x="240.820312"/>
     <use xlink:href="#DejaVuSansMono-65" x="301.025391"/>
     <use xlink:href="#DejaVuSansMono-5f" x="361.230469"/>
     <use xlink:href="#DejaVuSansMono-73" x="421.435547"/>
     <use xlink:href="#DejaVuSansMono-74" x="481.640625"/>
     <use xlink:href="#DejaVuSansMono-72" x="541.845703"/>
     <use xlink:href="#DejaVuSansMono-65" x="602.050781"/>
     <use xlink:href="#DejaVuSansMono-65" x="662.255859"/>
     <use xlink:href="#DejaVuSansMono-74" x="722.460938"/>
     <use xlink:href="#DejaVuSansMono-2a" x="782.666016"/>
     <use xlink:href="#DejaVuSansMono-32" x="842.871094"/>
     <use xlink:href="#DejaVuSansMono-2e" x="903.076172"/>
     <use xlink:href="#DejaVuSansMono-30" x="963.28125"/>
     <use xlink:href="#DejaVuSansMono-20" x="1023.486328"/>
     <use xlink:href="#DejaVuSansMono-2b" x="1083.691406"/>
     <use xlink:href="#DejaVuSansMono-20" x="1143.896484"/>
     <use xlink:href="#DejaVuSansMono-70" x="1204.101562"/>
     <use xlink:href="#DejaVuSansMono-65" x="1264.306641"/>
     <use xlink:href="#DejaVuSansMono-6f" x="1324.511719"/>
     <use xlink:href="#DejaVuSansMono-70" x="1384.716797"/>
     <use xlink:href="#DejaVuSansMono-6c" x="1444.921875"/>
     <use xlink:href="#DejaVuSansMono-65" x="1505.126953"/>
     <use xlink:href="#DejaVuSansMono-5f" x="1565.332031"/>
     <use xlink:href="#DejaVuSansMono-63" x="1625.537109"/>
     <use xlink:href="#DejaVuSansMono-72" x="1685.742188"/>
     <use xlink:href="#DejaVuSansMono-6f" x="1745.947266"/>
     <use xlink:href="#DejaVuSansMono-73" x="1806.152344"/>
     <use xlink:href="#DejaVuSansMono-73" x="1866.357422"/>
     <use xlink:href="#DejaVuSansMono-77" x="1926.5625"/>
     <use xlink:href="#DejaVuSansMono-61" x="1986.767578"/>
     <use xlink:href="#DejaVuSansMono-6c" x="2046.972656"/>
     <use xlink:href="#DejaVuSansMono-6b" x="2107.177734"/>
     <use xlink:href="#DejaVuSansMono-2a" x="2167.382812"/>
     <use xlink:href="#DejaVuSansMono-76" x="2227.587891"/>
     <use xlink:href="#DejaVuSansMono-65" x="2287.792969"/>
     <use xlink:href="#DejaVuSansMono-68" x="2347.998047"/>
     <use xlink:href="#DejaVuSansMono-69" x="2408.203125"/>
     <use xlink:href="#DejaVuSansMono-63" x="2468.408203"/>
     <use xlink:href="#DejaVuSansMono-6c" x="2528.613281"/>
     <use xlink:href="#DejaVuSansMono-65" x="2588.818359"/>
     <use xlink:href="#DejaVuSansMono-73" x="2649.023438"/>
     <use xlink:href="#DejaVuSansMono-5f" x="2709.228516"/>
     <use xlink:href="#DejaVuSansMono-74" x="2769.433594"/>
     <use xlink:href="#DejaVuSansMono-75" x="2829.638672"/>
     <use xlink:href="#DejaVuSansMono-72" x="2889.84375"/>
     <use xlink:href="#DejaVuSansMono-6e" x="2950.048828"/>
     <use xlink:href="#DejaVuSansMono-69" x="3010.253906"/>
     <use xlink:href="#DejaVuSansMono-6e" x="3070.458984"/>
     <use xlink:href="#DejaVuSansMono-67" x="3130.664062"/>
    </g>
   </g>
   <g id="text_17">
    <!-- People in vulnerable positions -->
    <g style="fill: #262626" transform="translate(514.472727 390.562031) scale(0.09 -0.09)">
     <defs>
      <path id="Arial-ItalicMT-50" d="M 275 0 
L 1234 4581 
L 3147 4581 
Q 3644 4581 3892 4467 
Q 4141 4353 4303 4076 
Q 4466 3800 4466 3456 
Q 4466 3172 4350 2878 
Q 4234 2584 4057 2393 
Q 3881 2203 3700 2106 
Q 3519 2009 3313 1963 
Q 2872 1859 2422 1859 
L 1275 1859 
L 888 0 
L 275 0 
z
M 1384 2378 
L 2394 2378 
Q 2981 2378 3256 2504 
Q 3531 2631 3697 2890 
Q 3863 3150 3863 3441 
Q 3863 3666 3775 3808 
Q 3688 3950 3528 4017 
Q 3369 4084 2916 4084 
L 1741 4084 
L 1384 2378 
z
" transform="scale(0.015625)"/>
     </defs>
     <use xlink:href="#Arial-ItalicMT-50"/>
     <use xlink:href="#Arial-ItalicMT-65" x="66.699219"/>
     <use xlink:href="#Arial-ItalicMT-6f" x="122.314453"/>
     <use xlink:href="#Arial-ItalicMT-70" x="177.929688"/>
     <use xlink:href="#Arial-ItalicMT-6c" x="233.544922"/>
     <use xlink:href="#Arial-ItalicMT-65" x="255.761719"/>
     <use xlink:href="#Arial-ItalicMT-20" x="311.376953"/>
     <use xlink:href="#Arial-ItalicMT-69" x="339.160156"/>
     <use xlink:href="#Arial-ItalicMT-6e" x="361.376953"/>
     <use xlink:href="#Arial-ItalicMT-20" x="416.992188"/>
     <use xlink:href="#Arial-ItalicMT-76" x="444.775391"/>
     <use xlink:href="#Arial-ItalicMT-75" x="494.775391"/>
     <use xlink:href="#Arial-ItalicMT-6c" x="550.390625"/>
     <use xlink:href="#Arial-ItalicMT-6e" x="572.607422"/>
     <use xlink:href="#Arial-ItalicMT-65" x="628.222656"/>
     <use xlink:href="#Arial-ItalicMT-72" x="683.837891"/>
     <use xlink:href="#Arial-ItalicMT-61" x="717.138672"/>
     <use xlink:href="#Arial-ItalicMT-62" x="772.753906"/>
     <use xlink:href="#Arial-ItalicMT-6c" x="828.369141"/>
     <use xlink:href="#Arial-ItalicMT-65" x="850.585938"/>
     <use xlink:href="#Arial-ItalicMT-20" x="906.201172"/>
     <use xlink:href="#Arial-ItalicMT-70" x="933.984375"/>
     <use xlink:href="#Arial-ItalicMT-6f" x="989.599609"/>
     <use xlink:href="#Arial-ItalicMT-73" x="1045.214844"/>
     <use xlink:href="#Arial-ItalicMT-69" x="1095.214844"/>
     <use xlink:href="#Arial-ItalicMT-74" x="1117.431641"/>
     <use xlink:href="#Arial-ItalicMT-69" x="1145.214844"/>
     <use xlink:href="#Arial-ItalicMT-6f" x="1167.431641"/>
     <use xlink:href="#Arial-ItalicMT-6e" x="1223.046875"/>
     <use xlink:href="#Arial-ItalicMT-73" x="1278.662109"/>
    </g>
   </g>
  </g>
  <g id="text_18">
   <!-- Mathematical Scoring System -->
   <g style="fill: #262626" transform="translate(311.664375 20.303437) scale(0.18 -0.18)">
    <defs>
     <path id="Arial-BoldMT-68" d="M 1334 4581 
L 1334 2897 
Q 1759 3394 2350 3394 
Q 2653 3394 2897 3281 
Q 3141 3169 3264 2994 
Q 3388 2819 3433 2606 
Q 3478 2394 3478 1947 
L 3478 0 
L 2600 0 
L 2600 1753 
Q 2600 2275 2550 2415 
Q 2500 2556 2373 2639 
Q 2247 2722 2056 2722 
Q 1838 2722 1666 2615 
Q 1494 2509 1414 2295 
Q 1334 2081 1334 1663 
L 1334 0 
L 456 0 
L 456 4581 
L 1334 4581 
z
" transform="scale(0.015625)"/>
     <path id="Arial-BoldMT-6d" d="M 394 3319 
L 1203 3319 
L 1203 2866 
Q 1638 3394 2238 3394 
Q 2556 3394 2790 3262 
Q 3025 3131 3175 2866 
Q 3394 3131 3647 3262 
Q 3900 3394 4188 3394 
Q 4553 3394 4806 3245 
Q 5059 3097 5184 2809 
Q 5275 2597 5275 2122 
L 5275 0 
L 4397 0 
L 4397 1897 
Q 4397 2391 4306 2534 
Q 4184 2722 3931 2722 
Q 3747 2722 3584 2609 
Q 3422 2497 3350 2280 
Q 3278 2063 3278 1594 
L 3278 0 
L 2400 0 
L 2400 1819 
Q 2400 2303 2353 2443 
Q 2306 2584 2207 2653 
Q 2109 2722 1941 2722 
Q 1738 2722 1575 2612 
Q 1413 2503 1342 2297 
Q 1272 2091 1272 1613 
L 1272 0 
L 394 0 
L 394 3319 
z
" transform="scale(0.015625)"/>
    </defs>
    <use xlink:href="#Arial-BoldMT-4d"/>
    <use xlink:href="#Arial-BoldMT-61" x="83.300781"/>
    <use xlink:href="#Arial-BoldMT-74" x="138.916016"/>
    <use xlink:href="#Arial-BoldMT-68" x="172.216797"/>
    <use xlink:href="#Arial-BoldMT-65" x="233.300781"/>
    <use xlink:href="#Arial-BoldMT-6d" x="288.916016"/>
    <use xlink:href="#Arial-BoldMT-61" x="377.832031"/>
    <use xlink:href="#Arial-BoldMT-74" x="433.447266"/>
    <use xlink:href="#Arial-BoldMT-69" x="466.748047"/>
    <use xlink:href="#Arial-BoldMT-63" x="494.53125"/>
    <use xlink:href="#Arial-BoldMT-61" x="550.146484"/>
    <use xlink:href="#Arial-BoldMT-6c" x="605.761719"/>
    <use xlink:href="#Arial-BoldMT-20" x="633.544922"/>
    <use xlink:href="#Arial-BoldMT-53" x="661.328125"/>
    <use xlink:href="#Arial-BoldMT-63" x="728.027344"/>
    <use xlink:href="#Arial-BoldMT-6f" x="783.642578"/>
    <use xlink:href="#Arial-BoldMT-72" x="844.726562"/>
    <use xlink:href="#Arial-BoldMT-69" x="883.642578"/>
    <use xlink:href="#Arial-BoldMT-6e" x="911.425781"/>
    <use xlink:href="#Arial-BoldMT-67" x="972.509766"/>
    <use xlink:href="#Arial-BoldMT-20" x="1033.59375"/>
    <use xlink:href="#Arial-BoldMT-53" x="1061.376953"/>
    <use xlink:href="#Arial-BoldMT-79" x="1128.076172"/>
    <use xlink:href="#Arial-BoldMT-73" x="1183.691406"/>
    <use xlink:href="#Arial-BoldMT-74" x="1239.306641"/>
    <use xlink:href="#Arial-BoldMT-65" x="1272.607422"/>
    <use xlink:href="#Arial-BoldMT-6d" x="1328.222656"/>
   </g>
  </g>
 </g>
</svg>
