<?xml version="1.0" encoding="utf-8" standalone="no"?>
<!DOCTYPE svg PUBLIC "-//W3C//DTD SVG 1.1//EN"
  "http://www.w3.org/Graphics/SVG/1.1/DTD/svg11.dtd">
<svg xmlns:xlink="http://www.w3.org/1999/xlink" width="819.737263pt" height="600.4475pt" viewBox="0 0 819.737263 600.4475" xmlns="http://www.w3.org/2000/svg" version="1.1">
 <metadata>
  <rdf:RDF xmlns:dc="http://purl.org/dc/elements/1.1/" xmlns:cc="http://creativecommons.org/ns#" xmlns:rdf="http://www.w3.org/1999/02/22-rdf-syntax-ns#">
   <cc:Work>
    <dc:type rdf:resource="http://purl.org/dc/dcmitype/StillImage"/>
    <dc:date>2025-06-22T12:59:34.834043</dc:date>
    <dc:format>image/svg+xml</dc:format>
    <dc:creator>
     <cc:Agent>
      <dc:title>Matplotlib v3.9.4, https://matplotlib.org/</dc:title>
     </cc:Agent>
    </dc:creator>
   </cc:Work>
  </rdf:RDF>
 </metadata>
 <defs>
  <style type="text/css">*{stroke-linejoin: round; stroke-linecap: butt}</style>
 </defs>
 <g id="figure_1">
  <g id="patch_1">
   <path d="M 0 600.4475 
L 819.737263 600.4475 
L 819.737263 0 
L 0 0 
z
" style="fill: #ffffff"/>
  </g>
  <g id="axes_1">
   <g id="patch_2">
    <path d="M 139.088987 550.601346 
L 246.840711 550.601346 
L 246.840711 482.3675 
L 139.088987 482.3675 
z
" clip-path="url(#pd53fffa7e6)" style="fill: #ff6b6b; opacity: 0.7; stroke: #000000; stroke-width: 0.3; stroke-linejoin: miter"/>
   </g>
   <g id="patch_3">
    <path d="M 273.778642 550.601346 
L 381.530366 550.601346 
L 381.530366 482.3675 
L 273.778642 482.3675 
z
" clip-path="url(#pd53fffa7e6)" style="fill: #ff6b6b; opacity: 0.7; stroke: #000000; stroke-width: 0.3; stroke-linejoin: miter"/>
   </g>
   <g id="patch_4">
    <path d="M 408.468297 550.601346 
L 516.220022 550.601346 
L 516.220022 482.3675 
L 408.468297 482.3675 
z
" clip-path="url(#pd53fffa7e6)" style="fill: #ff6b6b; opacity: 0.7; stroke: #000000; stroke-width: 0.3; stroke-linejoin: miter"/>
   </g>
   <g id="patch_5">
    <path d="M 543.157953 550.601346 
L 650.909677 550.601346 
L 650.909677 482.3675 
L 543.157953 482.3675 
z
" clip-path="url(#pd53fffa7e6)" style="fill: #ff6b6b; opacity: 0.7; stroke: #000000; stroke-width: 0.3; stroke-linejoin: miter"/>
   </g>
   <g id="patch_6">
    <path d="M 677.847608 550.601346 
L 785.599332 550.601346 
L 785.599332 482.3675 
L 677.847608 482.3675 
z
" clip-path="url(#pd53fffa7e6)" style="fill: #ff6b6b; opacity: 0.7; stroke: #000000; stroke-width: 0.3; stroke-linejoin: miter"/>
   </g>
   <g id="patch_7">
    <path d="M 139.088987 448.250577 
L 246.840711 448.250577 
L 246.840711 380.016731 
L 139.088987 380.016731 
z
" clip-path="url(#pd53fffa7e6)" style="fill: #4ecdc4; opacity: 0.7; stroke: #000000; stroke-width: 0.3; stroke-linejoin: miter"/>
   </g>
   <g id="patch_8">
    <path d="M 273.778642 448.250577 
L 381.530366 448.250577 
L 381.530366 380.016731 
L 273.778642 380.016731 
z
" clip-path="url(#pd53fffa7e6)" style="fill: #4ecdc4; opacity: 0.7; stroke: #000000; stroke-width: 0.3; stroke-linejoin: miter"/>
   </g>
   <g id="patch_9">
    <path d="M 408.468297 448.250577 
L 516.220022 448.250577 
L 516.220022 380.016731 
L 408.468297 380.016731 
z
" clip-path="url(#pd53fffa7e6)" style="fill: #4ecdc4; opacity: 0.7; stroke: #000000; stroke-width: 0.3; stroke-linejoin: miter"/>
   </g>
   <g id="patch_10">
    <path d="M 543.157953 448.250577 
L 650.909677 448.250577 
L 650.909677 380.016731 
L 543.157953 380.016731 
z
" clip-path="url(#pd53fffa7e6)" style="fill: #4ecdc4; opacity: 0.7; stroke: #000000; stroke-width: 0.3; stroke-linejoin: miter"/>
   </g>
   <g id="patch_11">
    <path d="M 677.847608 448.250577 
L 785.599332 448.250577 
L 785.599332 380.016731 
L 677.847608 380.016731 
z
" clip-path="url(#pd53fffa7e6)" style="fill: #4ecdc4; opacity: 0.7; stroke: #000000; stroke-width: 0.3; stroke-linejoin: miter"/>
   </g>
   <g id="patch_12">
    <path d="M 139.088987 345.899808 
L 246.840711 345.899808 
L 246.840711 277.665962 
L 139.088987 277.665962 
z
" clip-path="url(#pd53fffa7e6)" style="fill: #45b7d1; opacity: 0.7; stroke: #000000; stroke-width: 0.3; stroke-linejoin: miter"/>
   </g>
   <g id="patch_13">
    <path d="M 273.778642 345.899808 
L 381.530366 345.899808 
L 381.530366 277.665962 
L 273.778642 277.665962 
z
" clip-path="url(#pd53fffa7e6)" style="fill: #45b7d1; opacity: 0.7; stroke: #000000; stroke-width: 0.3; stroke-linejoin: miter"/>
   </g>
   <g id="patch_14">
    <path d="M 408.468297 345.899808 
L 516.220022 345.899808 
L 516.220022 277.665962 
L 408.468297 277.665962 
z
" clip-path="url(#pd53fffa7e6)" style="fill: #45b7d1; opacity: 0.7; stroke: #000000; stroke-width: 0.3; stroke-linejoin: miter"/>
   </g>
   <g id="patch_15">
    <path d="M 543.157953 345.899808 
L 650.909677 345.899808 
L 650.909677 277.665962 
L 543.157953 277.665962 
z
" clip-path="url(#pd53fffa7e6)" style="fill: #45b7d1; opacity: 0.7; stroke: #000000; stroke-width: 0.3; stroke-linejoin: miter"/>
   </g>
   <g id="patch_16">
    <path d="M 677.847608 345.899808 
L 785.599332 345.899808 
L 785.599332 277.665962 
L 677.847608 277.665962 
z
" clip-path="url(#pd53fffa7e6)" style="fill: #45b7d1; opacity: 0.7; stroke: #000000; stroke-width: 0.3; stroke-linejoin: miter"/>
   </g>
   <g id="patch_17">
    <path d="M 139.088987 243.549038 
L 246.840711 243.549038 
L 246.840711 175.315192 
L 139.088987 175.315192 
z
" clip-path="url(#pd53fffa7e6)" style="fill: #96ceb4; opacity: 0.7; stroke: #000000; stroke-width: 0.3; stroke-linejoin: miter"/>
   </g>
   <g id="patch_18">
    <path d="M 273.778642 243.549038 
L 381.530366 243.549038 
L 381.530366 175.315192 
L 273.778642 175.315192 
z
" clip-path="url(#pd53fffa7e6)" style="fill: #96ceb4; opacity: 0.7; stroke: #000000; stroke-width: 0.3; stroke-linejoin: miter"/>
   </g>
   <g id="patch_19">
    <path d="M 408.468297 243.549038 
L 516.220022 243.549038 
L 516.220022 175.315192 
L 408.468297 175.315192 
z
" clip-path="url(#pd53fffa7e6)" style="fill: #96ceb4; opacity: 0.7; stroke: #000000; stroke-width: 0.3; stroke-linejoin: miter"/>
   </g>
   <g id="patch_20">
    <path d="M 543.157953 243.549038 
L 650.909677 243.549038 
L 650.909677 175.315192 
L 543.157953 175.315192 
z
" clip-path="url(#pd53fffa7e6)" style="fill: #96ceb4; opacity: 0.7; stroke: #000000; stroke-width: 0.3; stroke-linejoin: miter"/>
   </g>
   <g id="patch_21">
    <path d="M 677.847608 243.549038 
L 785.599332 243.549038 
L 785.599332 175.315192 
L 677.847608 175.315192 
z
" clip-path="url(#pd53fffa7e6)" style="fill: #96ceb4; opacity: 0.7; stroke: #000000; stroke-width: 0.3; stroke-linejoin: miter"/>
   </g>
   <g id="patch_22">
    <path d="M 139.088987 141.198269 
L 246.840711 141.198269 
L 246.840711 72.964423 
L 139.088987 72.964423 
z
" clip-path="url(#pd53fffa7e6)" style="fill: #ffeaa7; opacity: 0.7; stroke: #000000; stroke-width: 0.3; stroke-linejoin: miter"/>
   </g>
   <g id="patch_23">
    <path d="M 273.778642 141.198269 
L 381.530366 141.198269 
L 381.530366 72.964423 
L 273.778642 72.964423 
z
" clip-path="url(#pd53fffa7e6)" style="fill: #ffeaa7; opacity: 0.7; stroke: #000000; stroke-width: 0.3; stroke-linejoin: miter"/>
   </g>
   <g id="patch_24">
    <path d="M 408.468297 141.198269 
L 516.220022 141.198269 
L 516.220022 72.964423 
L 408.468297 72.964423 
z
" clip-path="url(#pd53fffa7e6)" style="fill: #ffeaa7; opacity: 0.7; stroke: #000000; stroke-width: 0.3; stroke-linejoin: miter"/>
   </g>
   <g id="patch_25">
    <path d="M 543.157953 141.198269 
L 650.909677 141.198269 
L 650.909677 72.964423 
L 543.157953 72.964423 
z
" clip-path="url(#pd53fffa7e6)" style="fill: #ffeaa7; opacity: 0.7; stroke: #000000; stroke-width: 0.3; stroke-linejoin: miter"/>
   </g>
   <g id="patch_26">
    <path d="M 677.847608 141.198269 
L 785.599332 141.198269 
L 785.599332 72.964423 
L 677.847608 72.964423 
z
" clip-path="url(#pd53fffa7e6)" style="fill: #ffeaa7; opacity: 0.7; stroke: #000000; stroke-width: 0.3; stroke-linejoin: miter"/>
   </g>
   <g id="text_1">
    <!-- sidewalk -->
    <g style="fill: #262626" transform="translate(176.290474 518.558173) scale(0.08 -0.08)">
     <defs>
      <path id="Arial-BoldMT-73" d="M 150 947 
L 1031 1081 
Q 1088 825 1259 692 
Q 1431 559 1741 559 
Q 2081 559 2253 684 
Q 2369 772 2369 919 
Q 2369 1019 2306 1084 
Q 2241 1147 2013 1200 
Q 950 1434 666 1628 
Q 272 1897 272 2375 
Q 272 2806 612 3100 
Q 953 3394 1669 3394 
Q 2350 3394 2681 3172 
Q 3013 2950 3138 2516 
L 2309 2363 
Q 2256 2556 2107 2659 
Q 1959 2763 1684 2763 
Q 1338 2763 1188 2666 
Q 1088 2597 1088 2488 
Q 1088 2394 1175 2328 
Q 1294 2241 1995 2081 
Q 2697 1922 2975 1691 
Q 3250 1456 3250 1038 
Q 3250 581 2869 253 
Q 2488 -75 1741 -75 
Q 1063 -75 667 200 
Q 272 475 150 947 
z
" transform="scale(0.015625)"/>
      <path id="Arial-BoldMT-69" d="M 459 3769 
L 459 4581 
L 1338 4581 
L 1338 3769 
L 459 3769 
z
M 459 0 
L 459 3319 
L 1338 3319 
L 1338 0 
L 459 0 
z
" transform="scale(0.015625)"/>
      <path id="Arial-BoldMT-64" d="M 3503 0 
L 2688 0 
L 2688 488 
Q 2484 203 2207 64 
Q 1931 -75 1650 -75 
Q 1078 -75 670 386 
Q 263 847 263 1672 
Q 263 2516 659 2955 
Q 1056 3394 1663 3394 
Q 2219 3394 2625 2931 
L 2625 4581 
L 3503 4581 
L 3503 0 
z
M 1159 1731 
Q 1159 1200 1306 963 
Q 1519 619 1900 619 
Q 2203 619 2415 876 
Q 2628 1134 2628 1647 
Q 2628 2219 2422 2470 
Q 2216 2722 1894 2722 
Q 1581 2722 1370 2473 
Q 1159 2225 1159 1731 
z
" transform="scale(0.015625)"/>
      <path id="Arial-BoldMT-65" d="M 2381 1056 
L 3256 909 
Q 3088 428 2723 176 
Q 2359 -75 1813 -75 
Q 947 -75 531 491 
Q 203 944 203 1634 
Q 203 2459 634 2926 
Q 1066 3394 1725 3394 
Q 2466 3394 2894 2905 
Q 3322 2416 3303 1406 
L 1103 1406 
Q 1113 1016 1316 798 
Q 1519 581 1822 581 
Q 2028 581 2168 693 
Q 2309 806 2381 1056 
z
M 2431 1944 
Q 2422 2325 2234 2523 
Q 2047 2722 1778 2722 
Q 1491 2722 1303 2513 
Q 1116 2303 1119 1944 
L 2431 1944 
z
" transform="scale(0.015625)"/>
      <path id="Arial-BoldMT-77" d="M 1078 0 
L 28 3319 
L 881 3319 
L 1503 1144 
L 2075 3319 
L 2922 3319 
L 3475 1144 
L 4109 3319 
L 4975 3319 
L 3909 0 
L 3066 0 
L 2494 2134 
L 1931 0 
L 1078 0 
z
" transform="scale(0.015625)"/>
      <path id="Arial-BoldMT-61" d="M 1116 2306 
L 319 2450 
Q 453 2931 781 3162 
Q 1109 3394 1756 3394 
Q 2344 3394 2631 3255 
Q 2919 3116 3036 2902 
Q 3153 2688 3153 2116 
L 3144 1091 
Q 3144 653 3186 445 
Q 3228 238 3344 0 
L 2475 0 
Q 2441 88 2391 259 
Q 2369 338 2359 363 
Q 2134 144 1878 34 
Q 1622 -75 1331 -75 
Q 819 -75 523 203 
Q 228 481 228 906 
Q 228 1188 362 1408 
Q 497 1628 739 1745 
Q 981 1863 1438 1950 
Q 2053 2066 2291 2166 
L 2291 2253 
Q 2291 2506 2166 2614 
Q 2041 2722 1694 2722 
Q 1459 2722 1328 2630 
Q 1197 2538 1116 2306 
z
M 2291 1594 
Q 2122 1538 1756 1459 
Q 1391 1381 1278 1306 
Q 1106 1184 1106 997 
Q 1106 813 1243 678 
Q 1381 544 1594 544 
Q 1831 544 2047 700 
Q 2206 819 2256 991 
Q 2291 1103 2291 1419 
L 2291 1594 
z
" transform="scale(0.015625)"/>
      <path id="Arial-BoldMT-6c" d="M 459 0 
L 459 4581 
L 1338 4581 
L 1338 0 
L 459 0 
z
" transform="scale(0.015625)"/>
      <path id="Arial-BoldMT-6b" d="M 428 0 
L 428 4581 
L 1306 4581 
L 1306 2150 
L 2334 3319 
L 3416 3319 
L 2281 2106 
L 3497 0 
L 2550 0 
L 1716 1491 
L 1306 1063 
L 1306 0 
L 428 0 
z
" transform="scale(0.015625)"/>
     </defs>
     <use xlink:href="#Arial-BoldMT-73"/>
     <use xlink:href="#Arial-BoldMT-69" x="55.615234"/>
     <use xlink:href="#Arial-BoldMT-64" x="83.398438"/>
     <use xlink:href="#Arial-BoldMT-65" x="144.482422"/>
     <use xlink:href="#Arial-BoldMT-77" x="200.097656"/>
     <use xlink:href="#Arial-BoldMT-61" x="277.880859"/>
     <use xlink:href="#Arial-BoldMT-6c" x="333.496094"/>
     <use xlink:href="#Arial-BoldMT-6b" x="361.279297"/>
    </g>
   </g>
   <g id="text_2">
    <!-- street -->
    <g style="fill: #262626" transform="translate(316.760754 518.558173) scale(0.08 -0.08)">
     <defs>
      <path id="Arial-BoldMT-74" d="M 1981 3319 
L 1981 2619 
L 1381 2619 
L 1381 1281 
Q 1381 875 1398 808 
Q 1416 741 1477 697 
Q 1538 653 1625 653 
Q 1747 653 1978 738 
L 2053 56 
Q 1747 -75 1359 -75 
Q 1122 -75 931 4 
Q 741 84 652 211 
Q 563 338 528 553 
Q 500 706 500 1172 
L 500 2619 
L 97 2619 
L 97 3319 
L 500 3319 
L 500 3978 
L 1381 4491 
L 1381 3319 
L 1981 3319 
z
" transform="scale(0.015625)"/>
      <path id="Arial-BoldMT-72" d="M 1300 0 
L 422 0 
L 422 3319 
L 1238 3319 
L 1238 2847 
Q 1447 3181 1614 3287 
Q 1781 3394 1994 3394 
Q 2294 3394 2572 3228 
L 2300 2463 
Q 2078 2606 1888 2606 
Q 1703 2606 1575 2504 
Q 1447 2403 1373 2137 
Q 1300 1872 1300 1025 
L 1300 0 
z
" transform="scale(0.015625)"/>
     </defs>
     <use xlink:href="#Arial-BoldMT-73"/>
     <use xlink:href="#Arial-BoldMT-74" x="55.615234"/>
     <use xlink:href="#Arial-BoldMT-72" x="88.916016"/>
     <use xlink:href="#Arial-BoldMT-65" x="127.832031"/>
     <use xlink:href="#Arial-BoldMT-65" x="183.447266"/>
     <use xlink:href="#Arial-BoldMT-74" x="239.0625"/>
    </g>
   </g>
   <g id="text_3">
    <!-- bike_lane -->
    <g style="fill: #262626" transform="translate(444.113534 518.556298) scale(0.08 -0.08)">
     <defs>
      <path id="Arial-BoldMT-62" d="M 422 0 
L 422 4581 
L 1300 4581 
L 1300 2931 
Q 1706 3394 2263 3394 
Q 2869 3394 3266 2955 
Q 3663 2516 3663 1694 
Q 3663 844 3258 384 
Q 2853 -75 2275 -75 
Q 1991 -75 1714 67 
Q 1438 209 1238 488 
L 1238 0 
L 422 0 
z
M 1294 1731 
Q 1294 1216 1456 969 
Q 1684 619 2063 619 
Q 2353 619 2558 867 
Q 2763 1116 2763 1650 
Q 2763 2219 2556 2470 
Q 2350 2722 2028 2722 
Q 1713 2722 1503 2476 
Q 1294 2231 1294 1731 
z
" transform="scale(0.015625)"/>
      <path id="Arial-BoldMT-5f" d="M -59 -1266 
L -59 -697 
L 3591 -697 
L 3591 -1266 
L -59 -1266 
z
" transform="scale(0.015625)"/>
      <path id="Arial-BoldMT-6e" d="M 3478 0 
L 2600 0 
L 2600 1694 
Q 2600 2231 2544 2389 
Q 2488 2547 2361 2634 
Q 2234 2722 2056 2722 
Q 1828 2722 1647 2597 
Q 1466 2472 1398 2265 
Q 1331 2059 1331 1503 
L 1331 0 
L 453 0 
L 453 3319 
L 1269 3319 
L 1269 2831 
Q 1703 3394 2363 3394 
Q 2653 3394 2893 3289 
Q 3134 3184 3257 3021 
Q 3381 2859 3429 2653 
Q 3478 2447 3478 2063 
L 3478 0 
z
" transform="scale(0.015625)"/>
     </defs>
     <use xlink:href="#Arial-BoldMT-62"/>
     <use xlink:href="#Arial-BoldMT-69" x="61.083984"/>
     <use xlink:href="#Arial-BoldMT-6b" x="88.867188"/>
     <use xlink:href="#Arial-BoldMT-65" x="144.482422"/>
     <use xlink:href="#Arial-BoldMT-5f" x="200.097656"/>
     <use xlink:href="#Arial-BoldMT-6c" x="255.712891"/>
     <use xlink:href="#Arial-BoldMT-61" x="283.496094"/>
     <use xlink:href="#Arial-BoldMT-6e" x="339.111328"/>
     <use xlink:href="#Arial-BoldMT-65" x="400.195312"/>
    </g>
   </g>
   <g id="text_4">
    <!-- crosswalk -->
    <g style="fill: #262626" transform="translate(577.68944 518.558173) scale(0.08 -0.08)">
     <defs>
      <path id="Arial-BoldMT-63" d="M 3353 2338 
L 2488 2181 
Q 2444 2441 2289 2572 
Q 2134 2703 1888 2703 
Q 1559 2703 1364 2476 
Q 1169 2250 1169 1719 
Q 1169 1128 1367 884 
Q 1566 641 1900 641 
Q 2150 641 2309 783 
Q 2469 925 2534 1272 
L 3397 1125 
Q 3263 531 2881 228 
Q 2500 -75 1859 -75 
Q 1131 -75 698 384 
Q 266 844 266 1656 
Q 266 2478 700 2936 
Q 1134 3394 1875 3394 
Q 2481 3394 2839 3133 
Q 3197 2872 3353 2338 
z
" transform="scale(0.015625)"/>
      <path id="Arial-BoldMT-6f" d="M 256 1706 
Q 256 2144 472 2553 
Q 688 2963 1083 3178 
Q 1478 3394 1966 3394 
Q 2719 3394 3200 2905 
Q 3681 2416 3681 1669 
Q 3681 916 3195 420 
Q 2709 -75 1972 -75 
Q 1516 -75 1102 131 
Q 688 338 472 736 
Q 256 1134 256 1706 
z
M 1156 1659 
Q 1156 1166 1390 903 
Q 1625 641 1969 641 
Q 2313 641 2545 903 
Q 2778 1166 2778 1666 
Q 2778 2153 2545 2415 
Q 2313 2678 1969 2678 
Q 1625 2678 1390 2415 
Q 1156 2153 1156 1659 
z
" transform="scale(0.015625)"/>
     </defs>
     <use xlink:href="#Arial-BoldMT-63"/>
     <use xlink:href="#Arial-BoldMT-72" x="55.615234"/>
     <use xlink:href="#Arial-BoldMT-6f" x="94.53125"/>
     <use xlink:href="#Arial-BoldMT-73" x="155.615234"/>
     <use xlink:href="#Arial-BoldMT-73" x="211.230469"/>
     <use xlink:href="#Arial-BoldMT-77" x="266.845703"/>
     <use xlink:href="#Arial-BoldMT-61" x="344.628906"/>
     <use xlink:href="#Arial-BoldMT-6c" x="400.244141"/>
     <use xlink:href="#Arial-BoldMT-6b" x="428.027344"/>
    </g>
   </g>
   <g id="text_5">
    <!-- parked -->
    <g style="fill: #262626" transform="translate(718.60722 518.558173) scale(0.08 -0.08)">
     <defs>
      <path id="Arial-BoldMT-70" d="M 434 3319 
L 1253 3319 
L 1253 2831 
Q 1413 3081 1684 3237 
Q 1956 3394 2288 3394 
Q 2866 3394 3269 2941 
Q 3672 2488 3672 1678 
Q 3672 847 3265 386 
Q 2859 -75 2281 -75 
Q 2006 -75 1782 34 
Q 1559 144 1313 409 
L 1313 -1263 
L 434 -1263 
L 434 3319 
z
M 1303 1716 
Q 1303 1156 1525 889 
Q 1747 622 2066 622 
Q 2372 622 2575 867 
Q 2778 1113 2778 1672 
Q 2778 2194 2568 2447 
Q 2359 2700 2050 2700 
Q 1728 2700 1515 2451 
Q 1303 2203 1303 1716 
z
" transform="scale(0.015625)"/>
     </defs>
     <use xlink:href="#Arial-BoldMT-70"/>
     <use xlink:href="#Arial-BoldMT-61" x="61.083984"/>
     <use xlink:href="#Arial-BoldMT-72" x="116.699219"/>
     <use xlink:href="#Arial-BoldMT-6b" x="155.615234"/>
     <use xlink:href="#Arial-BoldMT-65" x="211.230469"/>
     <use xlink:href="#Arial-BoldMT-64" x="266.845703"/>
    </g>
   </g>
   <g id="text_6">
    <!-- Bikes -->
    <g style="fill: #262626" transform="translate(53.19375 519.595048) scale(0.12 -0.12)">
     <defs>
      <path id="Arial-BoldMT-42" d="M 469 4581 
L 2300 4581 
Q 2844 4581 3111 4536 
Q 3378 4491 3589 4347 
Q 3800 4203 3940 3964 
Q 4081 3725 4081 3428 
Q 4081 3106 3907 2837 
Q 3734 2569 3438 2434 
Q 3856 2313 4081 2019 
Q 4306 1725 4306 1328 
Q 4306 1016 4161 720 
Q 4016 425 3764 248 
Q 3513 72 3144 31 
Q 2913 6 2028 0 
L 469 0 
L 469 4581 
z
M 1394 3819 
L 1394 2759 
L 2000 2759 
Q 2541 2759 2672 2775 
Q 2909 2803 3045 2939 
Q 3181 3075 3181 3297 
Q 3181 3509 3064 3642 
Q 2947 3775 2716 3803 
Q 2578 3819 1925 3819 
L 1394 3819 
z
M 1394 1997 
L 1394 772 
L 2250 772 
Q 2750 772 2884 800 
Q 3091 838 3220 983 
Q 3350 1128 3350 1372 
Q 3350 1578 3250 1722 
Q 3150 1866 2961 1931 
Q 2772 1997 2141 1997 
L 1394 1997 
z
" transform="scale(0.015625)"/>
     </defs>
     <use xlink:href="#Arial-BoldMT-42"/>
     <use xlink:href="#Arial-BoldMT-69" x="72.216797"/>
     <use xlink:href="#Arial-BoldMT-6b" x="100"/>
     <use xlink:href="#Arial-BoldMT-65" x="155.615234"/>
     <use xlink:href="#Arial-BoldMT-73" x="211.230469"/>
    </g>
   </g>
   <g id="text_7">
    <!-- sidewalk -->
    <g style="fill: #262626" transform="translate(176.290474 416.207404) scale(0.08 -0.08)">
     <use xlink:href="#Arial-BoldMT-73"/>
     <use xlink:href="#Arial-BoldMT-69" x="55.615234"/>
     <use xlink:href="#Arial-BoldMT-64" x="83.398438"/>
     <use xlink:href="#Arial-BoldMT-65" x="144.482422"/>
     <use xlink:href="#Arial-BoldMT-77" x="200.097656"/>
     <use xlink:href="#Arial-BoldMT-61" x="277.880859"/>
     <use xlink:href="#Arial-BoldMT-6c" x="333.496094"/>
     <use xlink:href="#Arial-BoldMT-6b" x="361.279297"/>
    </g>
   </g>
   <g id="text_8">
    <!-- street -->
    <g style="fill: #262626" transform="translate(316.760754 416.207404) scale(0.08 -0.08)">
     <use xlink:href="#Arial-BoldMT-73"/>
     <use xlink:href="#Arial-BoldMT-74" x="55.615234"/>
     <use xlink:href="#Arial-BoldMT-72" x="88.916016"/>
     <use xlink:href="#Arial-BoldMT-65" x="127.832031"/>
     <use xlink:href="#Arial-BoldMT-65" x="183.447266"/>
     <use xlink:href="#Arial-BoldMT-74" x="239.0625"/>
    </g>
   </g>
   <g id="text_9">
    <!-- crosswalk -->
    <g style="fill: #262626" transform="translate(442.999784 416.207404) scale(0.08 -0.08)">
     <use xlink:href="#Arial-BoldMT-63"/>
     <use xlink:href="#Arial-BoldMT-72" x="55.615234"/>
     <use xlink:href="#Arial-BoldMT-6f" x="94.53125"/>
     <use xlink:href="#Arial-BoldMT-73" x="155.615234"/>
     <use xlink:href="#Arial-BoldMT-73" x="211.230469"/>
     <use xlink:href="#Arial-BoldMT-77" x="266.845703"/>
     <use xlink:href="#Arial-BoldMT-61" x="344.628906"/>
     <use xlink:href="#Arial-BoldMT-6c" x="400.244141"/>
     <use xlink:href="#Arial-BoldMT-6b" x="428.027344"/>
    </g>
   </g>
   <g id="text_10">
    <!-- waiting -->
    <g style="fill: #262626" transform="translate(583.257565 416.154904) scale(0.08 -0.08)">
     <defs>
      <path id="Arial-BoldMT-67" d="M 378 -219 
L 1381 -341 
Q 1406 -516 1497 -581 
Q 1622 -675 1891 -675 
Q 2234 -675 2406 -572 
Q 2522 -503 2581 -350 
Q 2622 -241 2622 53 
L 2622 538 
Q 2228 0 1628 0 
Q 959 0 569 566 
Q 263 1013 263 1678 
Q 263 2513 664 2953 
Q 1066 3394 1663 3394 
Q 2278 3394 2678 2853 
L 2678 3319 
L 3500 3319 
L 3500 341 
Q 3500 -247 3403 -537 
Q 3306 -828 3131 -993 
Q 2956 -1159 2664 -1253 
Q 2372 -1347 1925 -1347 
Q 1081 -1347 728 -1058 
Q 375 -769 375 -325 
Q 375 -281 378 -219 
z
M 1163 1728 
Q 1163 1200 1367 954 
Q 1572 709 1872 709 
Q 2194 709 2416 961 
Q 2638 1213 2638 1706 
Q 2638 2222 2425 2472 
Q 2213 2722 1888 2722 
Q 1572 2722 1367 2476 
Q 1163 2231 1163 1728 
z
" transform="scale(0.015625)"/>
     </defs>
     <use xlink:href="#Arial-BoldMT-77"/>
     <use xlink:href="#Arial-BoldMT-61" x="77.783203"/>
     <use xlink:href="#Arial-BoldMT-69" x="133.398438"/>
     <use xlink:href="#Arial-BoldMT-74" x="161.181641"/>
     <use xlink:href="#Arial-BoldMT-69" x="194.482422"/>
     <use xlink:href="#Arial-BoldMT-6e" x="222.265625"/>
     <use xlink:href="#Arial-BoldMT-67" x="283.349609"/>
    </g>
   </g>
   <g id="text_11">
    <!-- moving -->
    <g style="fill: #262626" transform="translate(717.501595 416.154904) scale(0.08 -0.08)">
     <defs>
      <path id="Arial-BoldMT-6d" d="M 394 3319 
L 1203 3319 
L 1203 2866 
Q 1638 3394 2238 3394 
Q 2556 3394 2790 3262 
Q 3025 3131 3175 2866 
Q 3394 3131 3647 3262 
Q 3900 3394 4188 3394 
Q 4553 3394 4806 3245 
Q 5059 3097 5184 2809 
Q 5275 2597 5275 2122 
L 5275 0 
L 4397 0 
L 4397 1897 
Q 4397 2391 4306 2534 
Q 4184 2722 3931 2722 
Q 3747 2722 3584 2609 
Q 3422 2497 3350 2280 
Q 3278 2063 3278 1594 
L 3278 0 
L 2400 0 
L 2400 1819 
Q 2400 2303 2353 2443 
Q 2306 2584 2207 2653 
Q 2109 2722 1941 2722 
Q 1738 2722 1575 2612 
Q 1413 2503 1342 2297 
Q 1272 2091 1272 1613 
L 1272 0 
L 394 0 
L 394 3319 
z
" transform="scale(0.015625)"/>
      <path id="Arial-BoldMT-76" d="M 1372 0 
L 34 3319 
L 956 3319 
L 1581 1625 
L 1763 1059 
Q 1834 1275 1853 1344 
Q 1897 1484 1947 1625 
L 2578 3319 
L 3481 3319 
L 2163 0 
L 1372 0 
z
" transform="scale(0.015625)"/>
     </defs>
     <use xlink:href="#Arial-BoldMT-6d"/>
     <use xlink:href="#Arial-BoldMT-6f" x="88.916016"/>
     <use xlink:href="#Arial-BoldMT-76" x="150"/>
     <use xlink:href="#Arial-BoldMT-69" x="205.615234"/>
     <use xlink:href="#Arial-BoldMT-6e" x="233.398438"/>
     <use xlink:href="#Arial-BoldMT-67" x="294.482422"/>
    </g>
   </g>
   <g id="text_12">
    <!-- People -->
    <g style="fill: #262626" transform="translate(45.87 417.244279) scale(0.12 -0.12)">
     <defs>
      <path id="Arial-BoldMT-50" d="M 466 0 
L 466 4581 
L 1950 4581 
Q 2794 4581 3050 4513 
Q 3444 4409 3709 4064 
Q 3975 3719 3975 3172 
Q 3975 2750 3822 2462 
Q 3669 2175 3433 2011 
Q 3197 1847 2953 1794 
Q 2622 1728 1994 1728 
L 1391 1728 
L 1391 0 
L 466 0 
z
M 1391 3806 
L 1391 2506 
L 1897 2506 
Q 2444 2506 2628 2578 
Q 2813 2650 2917 2803 
Q 3022 2956 3022 3159 
Q 3022 3409 2875 3571 
Q 2728 3734 2503 3775 
Q 2338 3806 1838 3806 
L 1391 3806 
z
" transform="scale(0.015625)"/>
     </defs>
     <use xlink:href="#Arial-BoldMT-50"/>
     <use xlink:href="#Arial-BoldMT-65" x="66.699219"/>
     <use xlink:href="#Arial-BoldMT-6f" x="122.314453"/>
     <use xlink:href="#Arial-BoldMT-70" x="183.398438"/>
     <use xlink:href="#Arial-BoldMT-6c" x="244.482422"/>
     <use xlink:href="#Arial-BoldMT-65" x="272.265625"/>
    </g>
   </g>
   <g id="text_13">
    <!-- moving -->
    <g style="fill: #262626" transform="translate(178.742974 313.804135) scale(0.08 -0.08)">
     <use xlink:href="#Arial-BoldMT-6d"/>
     <use xlink:href="#Arial-BoldMT-6f" x="88.916016"/>
     <use xlink:href="#Arial-BoldMT-76" x="150"/>
     <use xlink:href="#Arial-BoldMT-69" x="205.615234"/>
     <use xlink:href="#Arial-BoldMT-6e" x="233.398438"/>
     <use xlink:href="#Arial-BoldMT-67" x="294.482422"/>
    </g>
   </g>
   <g id="text_14">
    <!-- stopped -->
    <g style="fill: #262626" transform="translate(312.101379 313.856635) scale(0.08 -0.08)">
     <use xlink:href="#Arial-BoldMT-73"/>
     <use xlink:href="#Arial-BoldMT-74" x="55.615234"/>
     <use xlink:href="#Arial-BoldMT-6f" x="88.916016"/>
     <use xlink:href="#Arial-BoldMT-70" x="150"/>
     <use xlink:href="#Arial-BoldMT-70" x="211.083984"/>
     <use xlink:href="#Arial-BoldMT-65" x="272.167969"/>
     <use xlink:href="#Arial-BoldMT-64" x="327.783203"/>
    </g>
   </g>
   <g id="text_15">
    <!-- parked -->
    <g style="fill: #262626" transform="translate(449.227909 313.856635) scale(0.08 -0.08)">
     <use xlink:href="#Arial-BoldMT-70"/>
     <use xlink:href="#Arial-BoldMT-61" x="61.083984"/>
     <use xlink:href="#Arial-BoldMT-72" x="116.699219"/>
     <use xlink:href="#Arial-BoldMT-6b" x="155.615234"/>
     <use xlink:href="#Arial-BoldMT-65" x="211.230469"/>
     <use xlink:href="#Arial-BoldMT-64" x="266.845703"/>
    </g>
   </g>
   <g id="text_16">
    <!-- turning -->
    <g style="fill: #262626" transform="translate(583.261315 313.804135) scale(0.08 -0.08)">
     <defs>
      <path id="Arial-BoldMT-75" d="M 2644 0 
L 2644 497 
Q 2463 231 2167 78 
Q 1872 -75 1544 -75 
Q 1209 -75 943 72 
Q 678 219 559 484 
Q 441 750 441 1219 
L 441 3319 
L 1319 3319 
L 1319 1794 
Q 1319 1094 1367 936 
Q 1416 778 1544 686 
Q 1672 594 1869 594 
Q 2094 594 2272 717 
Q 2450 841 2515 1023 
Q 2581 1206 2581 1919 
L 2581 3319 
L 3459 3319 
L 3459 0 
L 2644 0 
z
" transform="scale(0.015625)"/>
     </defs>
     <use xlink:href="#Arial-BoldMT-74"/>
     <use xlink:href="#Arial-BoldMT-75" x="33.300781"/>
     <use xlink:href="#Arial-BoldMT-72" x="94.384766"/>
     <use xlink:href="#Arial-BoldMT-6e" x="133.300781"/>
     <use xlink:href="#Arial-BoldMT-69" x="194.384766"/>
     <use xlink:href="#Arial-BoldMT-6e" x="222.167969"/>
     <use xlink:href="#Arial-BoldMT-67" x="283.251953"/>
    </g>
   </g>
   <g id="text_17">
    <!-- blocking -->
    <g style="fill: #262626" transform="translate(715.27972 313.804135) scale(0.08 -0.08)">
     <use xlink:href="#Arial-BoldMT-62"/>
     <use xlink:href="#Arial-BoldMT-6c" x="61.083984"/>
     <use xlink:href="#Arial-BoldMT-6f" x="88.867188"/>
     <use xlink:href="#Arial-BoldMT-63" x="149.951172"/>
     <use xlink:href="#Arial-BoldMT-6b" x="205.566406"/>
     <use xlink:href="#Arial-BoldMT-69" x="261.181641"/>
     <use xlink:href="#Arial-BoldMT-6e" x="288.964844"/>
     <use xlink:href="#Arial-BoldMT-67" x="350.048828"/>
    </g>
   </g>
   <g id="text_18">
    <!-- Vehicles -->
    <g style="fill: #262626" transform="translate(37.179375 314.89351) scale(0.12 -0.12)">
     <defs>
      <path id="Arial-BoldMT-56" d="M 1634 0 
L -3 4581 
L 1000 4581 
L 2159 1191 
L 3281 4581 
L 4263 4581 
L 2622 0 
L 1634 0 
z
" transform="scale(0.015625)"/>
      <path id="Arial-BoldMT-68" d="M 1334 4581 
L 1334 2897 
Q 1759 3394 2350 3394 
Q 2653 3394 2897 3281 
Q 3141 3169 3264 2994 
Q 3388 2819 3433 2606 
Q 3478 2394 3478 1947 
L 3478 0 
L 2600 0 
L 2600 1753 
Q 2600 2275 2550 2415 
Q 2500 2556 2373 2639 
Q 2247 2722 2056 2722 
Q 1838 2722 1666 2615 
Q 1494 2509 1414 2295 
Q 1334 2081 1334 1663 
L 1334 0 
L 456 0 
L 456 4581 
L 1334 4581 
z
" transform="scale(0.015625)"/>
     </defs>
     <use xlink:href="#Arial-BoldMT-56"/>
     <use xlink:href="#Arial-BoldMT-65" x="61.199219"/>
     <use xlink:href="#Arial-BoldMT-68" x="116.814453"/>
     <use xlink:href="#Arial-BoldMT-69" x="177.898438"/>
     <use xlink:href="#Arial-BoldMT-63" x="205.681641"/>
     <use xlink:href="#Arial-BoldMT-6c" x="261.296875"/>
     <use xlink:href="#Arial-BoldMT-65" x="289.080078"/>
     <use xlink:href="#Arial-BoldMT-73" x="344.695312"/>
    </g>
   </g>
   <g id="text_19">
    <!-- pedestrian -->
    <g style="fill: #262626" transform="translate(172.737974 211.505865) scale(0.08 -0.08)">
     <use xlink:href="#Arial-BoldMT-70"/>
     <use xlink:href="#Arial-BoldMT-65" x="61.083984"/>
     <use xlink:href="#Arial-BoldMT-64" x="116.699219"/>
     <use xlink:href="#Arial-BoldMT-65" x="177.783203"/>
     <use xlink:href="#Arial-BoldMT-73" x="233.398438"/>
     <use xlink:href="#Arial-BoldMT-74" x="289.013672"/>
     <use xlink:href="#Arial-BoldMT-72" x="322.314453"/>
     <use xlink:href="#Arial-BoldMT-69" x="361.230469"/>
     <use xlink:href="#Arial-BoldMT-61" x="389.013672"/>
     <use xlink:href="#Arial-BoldMT-6e" x="444.628906"/>
    </g>
   </g>
   <g id="text_20">
    <!-- cycling -->
    <g style="fill: #262626" transform="translate(313.872629 211.453365) scale(0.08 -0.08)">
     <defs>
      <path id="Arial-BoldMT-79" d="M 44 3319 
L 978 3319 
L 1772 963 
L 2547 3319 
L 3456 3319 
L 2284 125 
L 2075 -453 
Q 1959 -744 1854 -897 
Q 1750 -1050 1614 -1145 
Q 1478 -1241 1279 -1294 
Q 1081 -1347 831 -1347 
Q 578 -1347 334 -1294 
L 256 -606 
Q 463 -647 628 -647 
Q 934 -647 1081 -467 
Q 1228 -288 1306 -9 
L 44 3319 
z
" transform="scale(0.015625)"/>
     </defs>
     <use xlink:href="#Arial-BoldMT-63"/>
     <use xlink:href="#Arial-BoldMT-79" x="55.615234"/>
     <use xlink:href="#Arial-BoldMT-63" x="111.230469"/>
     <use xlink:href="#Arial-BoldMT-6c" x="166.845703"/>
     <use xlink:href="#Arial-BoldMT-69" x="194.628906"/>
     <use xlink:href="#Arial-BoldMT-6e" x="222.412109"/>
     <use xlink:href="#Arial-BoldMT-67" x="283.496094"/>
    </g>
   </g>
   <g id="text_21">
    <!-- traffic -->
    <g style="fill: #262626" transform="translate(451.231659 211.505865) scale(0.08 -0.08)">
     <defs>
      <path id="Arial-BoldMT-66" d="M 75 3319 
L 563 3319 
L 563 3569 
Q 563 3988 652 4194 
Q 741 4400 980 4529 
Q 1219 4659 1584 4659 
Q 1959 4659 2319 4547 
L 2200 3934 
Q 1991 3984 1797 3984 
Q 1606 3984 1523 3895 
Q 1441 3806 1441 3553 
L 1441 3319 
L 2097 3319 
L 2097 2628 
L 1441 2628 
L 1441 0 
L 563 0 
L 563 2628 
L 75 2628 
L 75 3319 
z
" transform="scale(0.015625)"/>
     </defs>
     <use xlink:href="#Arial-BoldMT-74"/>
     <use xlink:href="#Arial-BoldMT-72" x="33.300781"/>
     <use xlink:href="#Arial-BoldMT-61" x="72.216797"/>
     <use xlink:href="#Arial-BoldMT-66" x="127.832031"/>
     <use xlink:href="#Arial-BoldMT-66" x="161.132812"/>
     <use xlink:href="#Arial-BoldMT-69" x="194.433594"/>
     <use xlink:href="#Arial-BoldMT-63" x="222.216797"/>
    </g>
   </g>
   <g id="text_22">
    <!-- construction -->
    <g style="fill: #262626" transform="translate(572.81319 211.505865) scale(0.08 -0.08)">
     <use xlink:href="#Arial-BoldMT-63"/>
     <use xlink:href="#Arial-BoldMT-6f" x="55.615234"/>
     <use xlink:href="#Arial-BoldMT-6e" x="116.699219"/>
     <use xlink:href="#Arial-BoldMT-73" x="177.783203"/>
     <use xlink:href="#Arial-BoldMT-74" x="233.398438"/>
     <use xlink:href="#Arial-BoldMT-72" x="266.699219"/>
     <use xlink:href="#Arial-BoldMT-75" x="305.615234"/>
     <use xlink:href="#Arial-BoldMT-63" x="366.699219"/>
     <use xlink:href="#Arial-BoldMT-74" x="422.314453"/>
     <use xlink:href="#Arial-BoldMT-69" x="455.615234"/>
     <use xlink:href="#Arial-BoldMT-6f" x="483.398438"/>
     <use xlink:href="#Arial-BoldMT-6e" x="544.482422"/>
    </g>
   </g>
   <g id="text_23">
    <!-- emergency -->
    <g style="fill: #262626" transform="translate(710.601595 211.400865) scale(0.08 -0.08)">
     <use xlink:href="#Arial-BoldMT-65"/>
     <use xlink:href="#Arial-BoldMT-6d" x="55.615234"/>
     <use xlink:href="#Arial-BoldMT-65" x="144.53125"/>
     <use xlink:href="#Arial-BoldMT-72" x="200.146484"/>
     <use xlink:href="#Arial-BoldMT-67" x="239.0625"/>
     <use xlink:href="#Arial-BoldMT-65" x="300.146484"/>
     <use xlink:href="#Arial-BoldMT-6e" x="355.761719"/>
     <use xlink:href="#Arial-BoldMT-63" x="416.845703"/>
     <use xlink:href="#Arial-BoldMT-79" x="472.460938"/>
    </g>
   </g>
   <g id="text_24">
    <!-- Activity -->
    <g style="fill: #262626" transform="translate(41.86875 212.46399) scale(0.12 -0.12)">
     <defs>
      <path id="Arial-BoldMT-41" d="M 4597 0 
L 3591 0 
L 3191 1041 
L 1359 1041 
L 981 0 
L 0 0 
L 1784 4581 
L 2763 4581 
L 4597 0 
z
M 2894 1813 
L 2263 3513 
L 1644 1813 
L 2894 1813 
z
" transform="scale(0.015625)"/>
     </defs>
     <use xlink:href="#Arial-BoldMT-41"/>
     <use xlink:href="#Arial-BoldMT-63" x="72.216797"/>
     <use xlink:href="#Arial-BoldMT-74" x="127.832031"/>
     <use xlink:href="#Arial-BoldMT-69" x="161.132812"/>
     <use xlink:href="#Arial-BoldMT-76" x="188.916016"/>
     <use xlink:href="#Arial-BoldMT-69" x="244.53125"/>
     <use xlink:href="#Arial-BoldMT-74" x="272.314453"/>
     <use xlink:href="#Arial-BoldMT-79" x="305.615234"/>
    </g>
   </g>
   <g id="text_25">
    <!-- signals -->
    <g style="fill: #262626" transform="translate(179.182974 109.102596) scale(0.08 -0.08)">
     <use xlink:href="#Arial-BoldMT-73"/>
     <use xlink:href="#Arial-BoldMT-69" x="55.615234"/>
     <use xlink:href="#Arial-BoldMT-67" x="83.398438"/>
     <use xlink:href="#Arial-BoldMT-6e" x="144.482422"/>
     <use xlink:href="#Arial-BoldMT-61" x="205.566406"/>
     <use xlink:href="#Arial-BoldMT-6c" x="261.181641"/>
     <use xlink:href="#Arial-BoldMT-73" x="288.964844"/>
    </g>
   </g>
   <g id="text_26">
    <!-- signs -->
    <g style="fill: #262626" transform="translate(317.208254 109.102596) scale(0.08 -0.08)">
     <use xlink:href="#Arial-BoldMT-73"/>
     <use xlink:href="#Arial-BoldMT-69" x="55.615234"/>
     <use xlink:href="#Arial-BoldMT-67" x="83.398438"/>
     <use xlink:href="#Arial-BoldMT-6e" x="144.482422"/>
     <use xlink:href="#Arial-BoldMT-73" x="205.566406"/>
    </g>
   </g>
   <g id="text_27">
    <!-- lanes -->
    <g style="fill: #262626" transform="translate(452.116659 109.155096) scale(0.08 -0.08)">
     <use xlink:href="#Arial-BoldMT-6c"/>
     <use xlink:href="#Arial-BoldMT-61" x="27.783203"/>
     <use xlink:href="#Arial-BoldMT-6e" x="83.398438"/>
     <use xlink:href="#Arial-BoldMT-65" x="144.482422"/>
     <use xlink:href="#Arial-BoldMT-73" x="200.097656"/>
    </g>
   </g>
   <g id="text_28">
    <!-- barriers -->
    <g style="fill: #262626" transform="translate(582.13569 109.155096) scale(0.08 -0.08)">
     <use xlink:href="#Arial-BoldMT-62"/>
     <use xlink:href="#Arial-BoldMT-61" x="61.083984"/>
     <use xlink:href="#Arial-BoldMT-72" x="116.699219"/>
     <use xlink:href="#Arial-BoldMT-72" x="155.615234"/>
     <use xlink:href="#Arial-BoldMT-69" x="194.53125"/>
     <use xlink:href="#Arial-BoldMT-65" x="222.314453"/>
     <use xlink:href="#Arial-BoldMT-72" x="277.929688"/>
     <use xlink:href="#Arial-BoldMT-73" x="316.845703"/>
    </g>
   </g>
   <g id="text_29">
    <!-- lighting -->
    <g style="fill: #262626" transform="translate(717.285345 109.102596) scale(0.08 -0.08)">
     <use xlink:href="#Arial-BoldMT-6c"/>
     <use xlink:href="#Arial-BoldMT-69" x="27.783203"/>
     <use xlink:href="#Arial-BoldMT-67" x="55.566406"/>
     <use xlink:href="#Arial-BoldMT-68" x="116.650391"/>
     <use xlink:href="#Arial-BoldMT-74" x="177.734375"/>
     <use xlink:href="#Arial-BoldMT-69" x="211.035156"/>
     <use xlink:href="#Arial-BoldMT-6e" x="238.818359"/>
     <use xlink:href="#Arial-BoldMT-67" x="299.902344"/>
    </g>
   </g>
   <g id="text_30">
    <!-- Infrastructure -->
    <g style="fill: #262626" transform="translate(7.2 110.191971) scale(0.12 -0.12)">
     <defs>
      <path id="Arial-BoldMT-49" d="M 438 0 
L 438 4581 
L 1363 4581 
L 1363 0 
L 438 0 
z
" transform="scale(0.015625)"/>
     </defs>
     <use xlink:href="#Arial-BoldMT-49"/>
     <use xlink:href="#Arial-BoldMT-6e" x="27.783203"/>
     <use xlink:href="#Arial-BoldMT-66" x="88.867188"/>
     <use xlink:href="#Arial-BoldMT-72" x="122.167969"/>
     <use xlink:href="#Arial-BoldMT-61" x="161.083984"/>
     <use xlink:href="#Arial-BoldMT-73" x="216.699219"/>
     <use xlink:href="#Arial-BoldMT-74" x="272.314453"/>
     <use xlink:href="#Arial-BoldMT-72" x="305.615234"/>
     <use xlink:href="#Arial-BoldMT-75" x="344.53125"/>
     <use xlink:href="#Arial-BoldMT-63" x="405.615234"/>
     <use xlink:href="#Arial-BoldMT-74" x="461.230469"/>
     <use xlink:href="#Arial-BoldMT-75" x="494.53125"/>
     <use xlink:href="#Arial-BoldMT-72" x="555.615234"/>
     <use xlink:href="#Arial-BoldMT-65" x="594.53125"/>
    </g>
   </g>
   <g id="text_31">
    <!-- 25 Encoded Vision Variables (0-4 scale each) -->
    <g style="fill: #262626" transform="translate(251.788513 18.8475) scale(0.16 -0.16)">
     <defs>
      <path id="Arial-BoldMT-32" d="M 3238 816 
L 3238 0 
L 159 0 
Q 209 463 459 877 
Q 709 1291 1447 1975 
Q 2041 2528 2175 2725 
Q 2356 2997 2356 3263 
Q 2356 3556 2198 3714 
Q 2041 3872 1763 3872 
Q 1488 3872 1325 3706 
Q 1163 3541 1138 3156 
L 263 3244 
Q 341 3969 753 4284 
Q 1166 4600 1784 4600 
Q 2463 4600 2850 4234 
Q 3238 3869 3238 3325 
Q 3238 3016 3127 2736 
Q 3016 2456 2775 2150 
Q 2616 1947 2200 1565 
Q 1784 1184 1673 1059 
Q 1563 934 1494 816 
L 3238 816 
z
" transform="scale(0.015625)"/>
      <path id="Arial-BoldMT-35" d="M 284 1178 
L 1159 1269 
Q 1197 972 1381 798 
Q 1566 625 1806 625 
Q 2081 625 2272 848 
Q 2463 1072 2463 1522 
Q 2463 1944 2273 2155 
Q 2084 2366 1781 2366 
Q 1403 2366 1103 2031 
L 391 2134 
L 841 4519 
L 3163 4519 
L 3163 3697 
L 1506 3697 
L 1369 2919 
Q 1663 3066 1969 3066 
Q 2553 3066 2959 2641 
Q 3366 2216 3366 1538 
Q 3366 972 3038 528 
Q 2591 -78 1797 -78 
Q 1163 -78 763 262 
Q 363 603 284 1178 
z
" transform="scale(0.015625)"/>
      <path id="Arial-BoldMT-20" transform="scale(0.015625)"/>
      <path id="Arial-BoldMT-45" d="M 466 0 
L 466 4581 
L 3863 4581 
L 3863 3806 
L 1391 3806 
L 1391 2791 
L 3691 2791 
L 3691 2019 
L 1391 2019 
L 1391 772 
L 3950 772 
L 3950 0 
L 466 0 
z
" transform="scale(0.015625)"/>
      <path id="Arial-BoldMT-28" d="M 1916 -1347 
L 1313 -1347 
Q 834 -625 584 153 
Q 334 931 334 1659 
Q 334 2563 644 3369 
Q 913 4069 1325 4659 
L 1925 4659 
Q 1497 3713 1336 3048 
Q 1175 2384 1175 1641 
Q 1175 1128 1270 590 
Q 1366 53 1531 -431 
Q 1641 -750 1916 -1347 
z
" transform="scale(0.015625)"/>
      <path id="Arial-BoldMT-30" d="M 1756 4600 
Q 2422 4600 2797 4125 
Q 3244 3563 3244 2259 
Q 3244 959 2794 391 
Q 2422 -78 1756 -78 
Q 1088 -78 678 436 
Q 269 950 269 2269 
Q 269 3563 719 4131 
Q 1091 4600 1756 4600 
z
M 1756 3872 
Q 1597 3872 1472 3770 
Q 1347 3669 1278 3406 
Q 1188 3066 1188 2259 
Q 1188 1453 1269 1151 
Q 1350 850 1473 750 
Q 1597 650 1756 650 
Q 1916 650 2041 751 
Q 2166 853 2234 1116 
Q 2325 1453 2325 2259 
Q 2325 3066 2244 3367 
Q 2163 3669 2039 3770 
Q 1916 3872 1756 3872 
z
" transform="scale(0.015625)"/>
      <path id="Arial-BoldMT-2d" d="M 359 1222 
L 359 2100 
L 2084 2100 
L 2084 1222 
L 359 1222 
z
" transform="scale(0.015625)"/>
      <path id="Arial-BoldMT-34" d="M 1994 0 
L 1994 922 
L 119 922 
L 119 1691 
L 2106 4600 
L 2844 4600 
L 2844 1694 
L 3413 1694 
L 3413 922 
L 2844 922 
L 2844 0 
L 1994 0 
z
M 1994 1694 
L 1994 3259 
L 941 1694 
L 1994 1694 
z
" transform="scale(0.015625)"/>
      <path id="Arial-BoldMT-29" d="M 216 -1347 
Q 475 -791 581 -494 
Q 688 -197 778 190 
Q 869 578 912 926 
Q 956 1275 956 1641 
Q 956 2384 797 3048 
Q 638 3713 209 4659 
L 806 4659 
Q 1278 3988 1539 3234 
Q 1800 2481 1800 1706 
Q 1800 1053 1594 306 
Q 1359 -531 822 -1347 
L 216 -1347 
z
" transform="scale(0.015625)"/>
     </defs>
     <use xlink:href="#Arial-BoldMT-32"/>
     <use xlink:href="#Arial-BoldMT-35" x="55.615234"/>
     <use xlink:href="#Arial-BoldMT-20" x="111.230469"/>
     <use xlink:href="#Arial-BoldMT-45" x="139.013672"/>
     <use xlink:href="#Arial-BoldMT-6e" x="205.712891"/>
     <use xlink:href="#Arial-BoldMT-63" x="266.796875"/>
     <use xlink:href="#Arial-BoldMT-6f" x="322.412109"/>
     <use xlink:href="#Arial-BoldMT-64" x="383.496094"/>
     <use xlink:href="#Arial-BoldMT-65" x="444.580078"/>
     <use xlink:href="#Arial-BoldMT-64" x="500.195312"/>
     <use xlink:href="#Arial-BoldMT-20" x="561.279297"/>
     <use xlink:href="#Arial-BoldMT-56" x="589.0625"/>
     <use xlink:href="#Arial-BoldMT-69" x="654.011719"/>
     <use xlink:href="#Arial-BoldMT-73" x="681.794922"/>
     <use xlink:href="#Arial-BoldMT-69" x="737.410156"/>
     <use xlink:href="#Arial-BoldMT-6f" x="765.193359"/>
     <use xlink:href="#Arial-BoldMT-6e" x="826.277344"/>
     <use xlink:href="#Arial-BoldMT-20" x="887.361328"/>
     <use xlink:href="#Arial-BoldMT-56" x="915.144531"/>
     <use xlink:href="#Arial-BoldMT-61" x="976.34375"/>
     <use xlink:href="#Arial-BoldMT-72" x="1031.958984"/>
     <use xlink:href="#Arial-BoldMT-69" x="1070.875"/>
     <use xlink:href="#Arial-BoldMT-61" x="1098.658203"/>
     <use xlink:href="#Arial-BoldMT-62" x="1154.273438"/>
     <use xlink:href="#Arial-BoldMT-6c" x="1215.357422"/>
     <use xlink:href="#Arial-BoldMT-65" x="1243.140625"/>
     <use xlink:href="#Arial-BoldMT-73" x="1298.755859"/>
     <use xlink:href="#Arial-BoldMT-20" x="1354.371094"/>
     <use xlink:href="#Arial-BoldMT-28" x="1382.154297"/>
     <use xlink:href="#Arial-BoldMT-30" x="1415.455078"/>
     <use xlink:href="#Arial-BoldMT-2d" x="1471.070312"/>
     <use xlink:href="#Arial-BoldMT-34" x="1504.371094"/>
     <use xlink:href="#Arial-BoldMT-20" x="1559.986328"/>
     <use xlink:href="#Arial-BoldMT-73" x="1587.769531"/>
     <use xlink:href="#Arial-BoldMT-63" x="1643.384766"/>
     <use xlink:href="#Arial-BoldMT-61" x="1699"/>
     <use xlink:href="#Arial-BoldMT-6c" x="1754.615234"/>
     <use xlink:href="#Arial-BoldMT-65" x="1782.398438"/>
     <use xlink:href="#Arial-BoldMT-20" x="1838.013672"/>
     <use xlink:href="#Arial-BoldMT-65" x="1865.796875"/>
     <use xlink:href="#Arial-BoldMT-61" x="1921.412109"/>
     <use xlink:href="#Arial-BoldMT-63" x="1977.027344"/>
     <use xlink:href="#Arial-BoldMT-68" x="2032.642578"/>
     <use xlink:href="#Arial-BoldMT-29" x="2093.726562"/>
    </g>
   </g>
  </g>
 </g>
 <defs>
  <clipPath id="pd53fffa7e6">
   <rect x="31.337263" y="38.8475" width="781.2" height="554.4"/>
  </clipPath>
 </defs>
</svg>
